<?xml version="1.0" encoding="utf-8"?>
<!-- Generator: Adobe Illustrator 22.1.0, SVG Export Plug-In . SVG Version: 6.00 Build 0)  -->
<svg version="1.1" id="Layer_1" xmlns="http://www.w3.org/2000/svg" xmlns:xlink="http://www.w3.org/1999/xlink" x="0px" y="0px"
	 viewBox="0 0 379 179" style="enable-background:new 0 0 379 179;" xml:space="preserve">

<g>
	<path id="path273" class="st0" d="M219.2,98.4l-0.6-0.1l0,0.5L219.2,98.4z M216.5,116.4l0.1-2.4l-2.3-0.4l-0.1,4.2L216.5,116.4
		L216.5,116.4z M219.5,114.6l-1.4-0.3l0,1.1L219.5,114.6L219.5,114.6z M216,131.4l0.1-2.1l-2.3-0.4l-0.1,4L216,131.4L216,131.4z
		 M218.7,129.8l-1.1-0.2l0,0.9L218.7,129.8z M203.6,59h-0.3l-0.1,1.9l0.3-0.2L203.6,59z M226.1,23.7l-0.1,2.2h0.4l0.1-2.2H226.1z
		 M227.2,23.7h-0.4l-0.1,2.2h0.4L227.2,23.7z M215.7,25.7l-0.1,2.2h0.4l0.1-2.2H215.7z M213.4,85.3l0,0.3l0.3-0.2l0-0.1L213.4,85.3
		L213.4,85.3z M213.8,70.3l0,0.2l0.3-0.2L213.8,70.3z M216.8,25.7h-0.4l-0.1,2.2h0.4L216.8,25.7z M209.4,34.4l-0.1,2.2h0.4l0.1-2.2
		H209.4z M210.5,34.4H210l-0.1,2.2h0.4L210.5,34.4z M219.4,30.7l-0.1,2.2h0.4l0.1-2.2H219.4z M220.5,30.7h-0.4l-0.1,2.2h0.4
		L220.5,30.7z M212.3,31.5l-0.1,2.2h0.4l0.1-2.2H212.3z M211.1,56.5l0-1.1l-1.2-0.2l-0.1,2L211.1,56.5z M213.3,31.5h-0.4l-0.1,2.2
		h0.4L213.3,31.5z M223.8,31.8l-0.1,2.2h0.4l0.1-2.2H223.8z M224.9,31.8h-0.4l-0.1,2.2h0.4L224.9,31.8z M234,30.5l0.1,2.2l0.4-0.1
		l-0.1-2.2L234,30.5z M235.1,30.3l-0.4,0.1l0.1,2.2l0.4-0.1L235.1,30.3z M269.7,73.8l0-1.1l-1.7,0.6L269.7,73.8L269.7,73.8z
		 M269.4,87.7L269.4,87.7L269.4,87.7L269.4,87.7z M269.1,103.8l0-1.7l-2.2,0.8l0,0.3L269.1,103.8L269.1,103.8z M268.8,119l0-0.5
		l-0.7,0.2L268.8,119L268.8,119z M275.4,75.4l0.1-4.7l-4.5,1.5l0,1.9L275.4,75.4z M275.1,89.4l0.1-3.6l-4.5,1.5l0,0.8L275.1,89.4
		L275.1,89.4z M274.8,105.5l0.1-5.3l-4.5,1.5l0,2.5L274.8,105.5L274.8,105.5z M274.5,120.6l0.1-4l-4.5,1.5l0,1.2L274.5,120.6
		L274.5,120.6z M274.2,134l0-1.3l-2,0.7L274.2,134z M279.6,90.7l0.1-6.5l-3.4,1.1l-0.1,4.4L279.6,90.7z M279.2,106.8l0.2-8.1
		l-3.4,1.1l-0.1,6L279.2,106.8z M279,121.9l0.1-6.9l-3.4,1.1l-0.1,4.8L279,121.9L279,121.9z M278.7,135.3l0.1-4.1l-3.4,1.1l0,2
		L278.7,135.3L278.7,135.3z M282.6,91.6l0.2-8.5l-2,0.7l-0.1,7.2L282.6,91.6L282.6,91.6z M282.3,107.7l0.2-10.1l-2,0.7l-0.2,8.8
		L282.3,107.7z M282,122.8l0.2-8.9l-2,0.7l-0.1,7.6L282,122.8z M281.8,136.2l0.1-6.1l-2,0.7l-0.1,4.8L281.8,136.2z M240.6,22.7
		l0,2.2l0.4,0l0-2.2L240.6,22.7z M241.9,25.4l0,2.4l-0.1,0l-0.1,2.2l-0.1,8.4l0.4,0.1l0.6-26.4L241.9,25.4z M241.7,22.7l-0.4,0
		l0,2.2l0.4,0L241.7,22.7z M242.7,32l0,2.2l0.4,0l0-2.2L242.7,32z M243.8,31.9l-0.3,0l0,2.2l0.4,0L243.8,31.9L243.8,31.9z
		 M248.2,32.8l0,2.2l0.4,0l0-2.2L248.2,32.8z M249.2,32.7l-0.4,0l0,2.2l0.4,0L249.2,32.7z M262.1,34.1l0,2.2l0.4,0l0-2.2L262.1,34.1
		z M263.2,34l-0.4,0l0,2.2l0.4,0L263.2,34z M267.5,38.1l0,2.2l0.4,0l0-2.2L267.5,38.1z M268.6,38l-0.4,0l0,2.2l0.4,0L268.6,38z
		 M270.5,35.2l0,2.2l0.4,0l0-2.2L270.5,35.2z M269.8,60.2l0-1.2l-1.3,0.5l0,0.4L269.8,60.2z M271.5,35.1l-0.4,0l0,2.2l0.4,0
		L271.5,35.1z M273.4,57.9l0,2.8l0.4,0l0-2.8L273.4,57.9z M273.1,60.8l0-2.8l-0.2,0l-0.1,0l0,2.8L273.1,60.8z M273.3,41.6l0,2.2
		l0.4,0l0-2.2L273.3,41.6z M272.6,61l0-3l-1.2,0.4l0,2.2L272.6,61L272.6,61z M274.3,41.5l-0.4,0l0,2.2l0.4,0L274.3,41.5z
		 M280.6,59.7l0,2.8l0.4,0l0-2.8L280.6,59.7z M280.3,62.5l0-2.8l-0.3,0l0,2.8L280.3,62.5z M280.5,43.3l0,2.2l0.4,0l0-2.2L280.5,43.3
		z M279.9,63.2l0-0.2l-0.1,0l0.1-7.4l-5.7,1.9l0,0.4l-0.2,0l0,2.8l0.3,0l0,0.8L279.9,63.2z M280,69.8l-0.2,0l0-0.6l-3.2,1.1
		l-0.1,5.4l3.3,1L280,69.8L280,69.8z M281.5,43.3l-0.4,0l0,2.2l0.4,0L281.5,43.3z M283.3,68.1l0,1.4l0.4,0l0-2.8l-0.2,0l-0.1,1.4
		L283.3,68.1L283.3,68.1z M283.1,69.5l0-1.4l-0.3,0.1l0,1.3L283.1,69.5L283.1,69.5z M283.2,50.3l0,0.2l0.3,0.1l-0.1,1.8l0.1,0l0-2.2
		L283.2,50.3z M282.6,64l0-2.4l0,0l0.1-6.9l-1.3,0.4l-0.1,4.6l-0.2,0l0,2.8l0.3,0l0,1.2L282.6,64z M282.9,76.8l-0.4,0l0.1-6.9
		l-0.1,0l0-1.7l-1.2,0.4l0,1l-0.2,0l-0.1,7.3l1.9,0.6L282.9,76.8L282.9,76.8z M284.3,50.3l-0.4,0l0,2.2l0.4,0L284.3,50.3L284.3,50.3
		z M285.6,63l0,2.8l0.4,0l0-2.8L285.6,63z M286.5,46.6l-0.4,0l0,2.2l0.4,0L286.5,46.6L286.5,46.6z M285,78.2l0.1,0l0.1-5.1l-0.1,0
		L285,78.2z M284.5,92.2l0.3,0.1l0.2-9.9l-0.2,0.1L284.5,92.2L284.5,92.2z M284,108.2l0.5,0.2l0.2-11.5l-0.4,0.1L284,108.2
		L284,108.2z M283.5,123.3l0.7,0.2l0.2-10.3l-0.6,0.2L283.5,123.3z M283.1,136.6l0.9,0.3l0.1-7.5l-0.8,0.3L283.1,136.6L283.1,136.6z
		 M283.6,113.5l-0.2,0.1l-0.2,9.6l0.1,0L283.6,113.5L283.6,113.5z M284.1,97l-0.4,0.1l-0.2,10.8l0.3,0.1L284.1,97L284.1,97z
		 M284.6,82.5l-0.6,0.2l-0.2,9.2l0.5,0.1L284.6,82.5z M285.2,63l-0.2,0l0,2.8l0.1,0L285.2,63z M285.8,46.6l-0.3,0l0,2.2l0.3,0
		L285.8,46.6z M252.8,35l0,2.2l0.4,0l0-2.2L252.8,35z M253.8,34.9l-0.4,0l0,2.2l0.4,0L253.8,34.9L253.8,34.9z M255.7,32l0,2.2l0.4,0
		l0-2.2L255.7,32z M256.8,32l-0.4,0l0,2.2l0.4,0L256.8,32z M258.5,38.4l0,2.2l0.4,0l0-2.2L258.5,38.4z M259.5,38.4l-0.4,0l0,2.2
		l0.4,0L259.5,38.4L259.5,38.4z M201.7,90.2l0.4-0.1l0.2-6.5l-0.6-0.1L201.7,90.2z M201.7,105.8l2-0.7l0-8.3l0,0l0,1.5h-0.2l0.1-1.6
		l-1.3-0.4l0,0.3H202l0-0.4l-0.3-0.1L201.7,105.8L201.7,105.8z M201.7,121.4l0.9-0.2l1-0.3l0-7.6l-2-0.7L201.7,121.4L201.7,121.4z
		 M201.7,134.9l2-0.6l0-4.8l-2-0.7L201.7,134.9z M204,60.5l0.2-0.1l0-1.4H204L204,60.5L204,60.5z M204.9,42l-0.4,0l0,2.2l0.4,0
		L204.9,42z M203.8,41.9l0,2.2l0.4,0l0-2.2L203.8,41.9z M201.6,68.1l-0.4-0.1v0.1L201.6,68.1L201.6,68.1z M201.8,68.2L201.8,68.2
		L201.8,68.2L201.8,68.2z M202.4,61.4L203,61l0.1-2.5h0.1l0.2-4.7l-0.9-0.2l-0.1,6.5h0L202.4,61.4L202.4,61.4z M201.7,75.5l0,0.8
		l0.8-0.2h0l0.3-7.7l-0.5-0.1l0,0.4l-0.1,0l-0.1,6.8L201.7,75.5L201.7,75.5z M201,48.9l0,0.4l0.4-0.3l0-0.1L201,48.9z M199,63.2h0.2
		l0,0l0.1-1.5l-0.3,0L199,63.2z M198.8,45.2l0,2.2l0.2,0l0.1-2.2L198.8,45.2L198.8,45.2z M199.8,90.8l-0.1-7.5l-0.1,0l-0.1,4.3
		l0,3.4L199.8,90.8L199.8,90.8z M200,106.4l-0.1-10.8l-0.4-0.1l0,11.1L200,106.4z M200.2,121.8l-0.1-9.7l-0.6-0.2l0,10.1
		L200.2,121.8L200.2,121.8z M200.4,135.3l-0.1-6.9l-0.8-0.3l0,7.4l0.6-0.1L200.4,135.3z M200.3,112.1l0.1,9.6l0.1,0l0-9.5
		L200.3,112.1z M200.1,95.7l0.1,10.6l0.3-0.1l0-10.4L200.1,95.7L200.1,95.7z M200,83.3l0.1,7.4l0.5-0.1l0-7.2L200,83.3L200,83.3z
		 M199.7,61.7l0,1.2l0.1-0.1l0-1.1L199.7,61.7L199.7,61.7z M199.8,47.5L199.8,47.5l0.1-2.2l0,0L199.8,47.5z M199.5,45.3l0,1.9
		L199.5,45.3L199.5,45.3z M200.1,28.6L200.1,28.6l-0.1,2.2h0.1L200.1,28.6z M200.3,30.8h0.1l0.1-2.2h-0.2L200.3,30.8z M200.2,47.5
		l0.1-2.5h-0.1l0,0.3l-0.1,0l0,2.2L200.2,47.5L200.2,47.5z M200.9,68l-0.8-0.1l-0.1,3.7l0,0.2l0,0l-0.1,2.2l0,0.4h0.1l-0.1,2.4
		l0.7-0.2l0-8.5l0.1,0l0,0l0.3,0V68z M200.7,53.3L200.7,53.3l-0.3,7h-0.2l0,0.2l0,2.1l0.7-0.4l0.1-8.2l-0.2,0L200.7,53.3L200.7,53.3
		z M200.9,37.2l-0.3,7.8h-0.2l-0.1,2.8h0.3l-0.1,1.7l0.2-0.1l0-3.8l0.1,0L200.9,37.2L200.9,37.2L200.9,37.2z M201,30.8L201,30.8
		l0.1-2.2h-0.4l-0.1,2.2h0.2l0-2.1l0.2,0L201,30.8z M205,46.9l3.6-2.2l0.3-8.1h0.2l0.1-2.2h-0.1l0.5-14.2h0l0.1-4.3h0.2l-0.1,4.3
		h0.8l0.1-3.4h0.2l-0.1,3.4h0.3l0.2-6h0.2l-0.3,8.4H211l-0.3,8.4h0.1l-0.3,8.4h-0.2l-0.1,4.2l1.2-0.7l0-0.3h0l0.3-9h0.2l0.1-2.2
		h-0.1l0.5-14.2h0l0.1-4.3h0.2l-0.1,4.3h0.7l0.1-3.4h0.2l-0.1,3.4h0.3l0.2-6h0.2l-0.3,8.4h-0.2l-0.3,8.4h0.1l-0.3,8.4h-0.2l-0.2,5.5
		l1.8-1.1L215,37h0l0.3-9h0.2l0.1-2.2h-0.1l0.5-14.2h0l0.1-4.3h0.2l-0.1,4.3h0.7l0.1-3.4h0.2l-0.1,3.4h0.3l0.2-6h0.2l-0.3,8.4h-0.2
		l-0.3,8.4h0.1l-0.3,8.4h-0.2l-0.3,9.3l2.4-1.4l0.2-5.9h0.2l0.1-2.2h-0.1l0.5-14.2h0l0.1-4.3h0.2l-0.1,4.3h0.7l0.1-3.4h0.2l-0.1,3.4
		h0.3l0.2-6h0.2l-0.3,8.4H221l-0.3,8.4h0.1l-0.3,8.4h-0.2l-0.1,2l2.9-1.7l0.1-2.1h0.2l0.1-2.2h-0.1l0.5-14.2h0l0.1-4.3h0.2l-0.1,4.3
		h0.7l0.1-3.4h0.2l-0.1,3.4h0.3l0.2-6h0.2l-0.3,8.4h-0.2l-0.3,8.4h0.1l-0.2,6.5l0.3-0.2l0.3-9h0.2l0.1-2.2h-0.1l0.5-14.2h0l0.1-4.3
		h0.2l-0.1,4.3h0.7l0.1-3.4h0.2l-0.1,3.4h0.3l0.2-6h0.2l-0.3,8.4h-0.2l-0.3,8.4h0.1l-0.3,8.4H227l-0.2,5.2l7.1,2.1l-0.2-3.3l0.2-0.1
		l-0.1-2.2l-0.1,0l-1-14l0,0l-0.3-4.2l0.2-0.1l0.3,4.2l0.7-0.2l-0.2-3.4l0.2-0.1l0.2,3.4l0.3-0.1l-0.4-5.9l0.2-0.1l0.6,8.3l-0.2,0
		L235,27l0.1,0l0.6,8.3l-0.2,0l0.1,1.3l4.4,1.3l0-4l0,0l0.1-9l0.2,0l0-2.2l-0.1,0l0.2-14.2l0,0v0h1.7l0,2.4l-0.2,0l-0.1,8.4l0.1,0
		l0,2.9l0.6-13.7h0.1l-0.7,30l0.2,0.1l0.1-4.4l0.2,0l0-2.2l-0.1,0l0.2-14.2l0,0l0.1-4.3l0.1,0l0.1-4.9h0.1l-0.1,9.2l0.7,0l0-3.4
		l0.1,0l0.1-5.7h0.1l-0.2,9.2l0.3,0l0.1-6l0.2,0l-0.1,8.4l-0.2,0l-0.1,8.4l0.1,0l-0.1,8.4l-0.2,0l0,2l3.9,1.1l0.1-5.2l0.2,0l0-2.2
		l-0.1,0l0.2-14.2l0,0l0-4.3l0.2,0l-0.1,4.3l0.7,0l0-3.4l0.2,0l0,3.4l0.3,0l0.1-6l0.2,0l-0.1,8.4l-0.2,0l-0.1,8.4l0.1,0l-0.1,8.4
		l-0.2,0l0,2.8l0.7,0.2l0,0.1l2.3,0.6l0.1-4.3l0.2,0l0-2.2l-0.1,0l0.2-14.2l0,0l0-4.3l0.2,0l-0.1,4.3l0.8,0l0-3.4l0.2,0l0,3.4l0.3,0
		l0.1-6l0.2,0l-0.1,8.4l-0.2,0l-0.1,8.4l0.1,0L254,40l-0.2,0l0,1.9l1.3,0.4l0.1-8l0.2,0l0-2.2l-0.1,0l0.2-14.2l0,0l0.1-4.3l0.2,0
		l-0.1,4.3l0.7,0l0-3.4l0.2,0l0,3.4l0.3,0l0.1-6l0.2,0l-0.1,8.4l-0.2,0l-0.1,8.4l0.1,0l-0.1,8.4l-0.2,0l-0.1,5.6L258,43l0-2.4l0.2,0
		l0-2.2l-0.1,0l0.2-14.2l0,0l0.1-4.3l0.2,0l0,4.3l0.7,0l0-3.4l0.2,0l0,3.4l0.3,0l0.1-6l0.2,0l-0.1,8.4l-0.2,0l-0.1,8.4l0.1,0
		l-0.1,8.4l-0.2,0l0,0.1l2,0.6l0.1-8l0.2,0l0-2.2l-0.1,0l0.2-14.2l0,0l0.1-4.3l0.2,0l-0.1,4.3l0.7,0l0-3.4l0.2,0l0,3.4l0.3,0l0.1-6
		l0.2,0l-0.1,8.4l-0.2,0l-0.1,8.4l0.1,0l-0.1,8.4l-0.2,0l-0.1,5.5l4,1.2l0.1-5.5l0.2,0l0-2.2l-0.1,0l0.2-14.2h0l0.1-4.3l0.2,0l0,4.3
		l0.7,0l0-3.4l0.2,0l0,3.4l0.3,0l0.1-6l0.2,0l-0.1,8.4l-0.2,0l-0.1,8.4l0.1,0l-0.1,8.4l-0.2,0l0,3.1l1.3,0.4l0-0.3l0,0l0.1-9l0.2,0
		l0-2.2l-0.1,0l0.2-14.2l0,0l0.1-4.3l0.2,0l-0.1,4.3l0.7,0l0-3.4l0.2,0l0,3.4l0.3,0l0.1-6l0.2,0l-0.1,8.4l-0.2,0l-0.1,8.4l0.1,0
		l-0.1,8.4l-0.2,0l-0.1,6.9l1.3,0.4l0-3.7l0.2,0l0-2.2l-0.1,0l0.2-14.2h0l0.1-4.3l0.2,0l-0.1,4.3l0.8,0l0-3.4l0.2,0l0,3.4l0.3,0
		l0.1-6l0.2,0l-0.1,8.4l-0.2,0l-0.1,8.4l0.1,0l-0.1,8.4l-0.2,0l0,1.3l5.7,1.7l0-4.1l0.2,0l0-2.2l-0.1,0l0.2-14.2l0,0l0.1-4.3l0.2,0
		l0,4.3l0.7,0l0-3.4l0.2,0l0,3.4l0.3,0l0.1-6l0.2,0l-0.1,8.4l-0.2,0l-0.1,8.4l0.1,0l-0.1,8.4l-0.2,0l0,1.7l1.5,0.4l0-0.2l-0.1,0
		l0.2-14.2l0,0l0.1-4.3l0.2,0l-0.1,4.3l0.7,0l0-3.4l0.2,0l0,3.4l0.3,0l0.1-6l0.2,0l-0.1,8.4l-0.2,0l-0.1,8.4l0.1,0l-0.1,8.4l-0.2,0
		l-0.1,11.2l-0.2,0l0,2.8l0.3,0v0l0.1,0l-0.2,8.5l0.7,0.2l0.2-5l-0.1,0l0.1-6.8l-0.1,0l0.1-8.4l0,0l0.1-9l0.2,0l0-2.2l-0.1,0
		l0.2-14.2l0,0l0.1-4.3l0.2,0l-0.1,4.3l0.7,0l0-0.7l0-2.8l0.1,0l0.1-4.5h0.3l-0.3,7.9l0.3,0l0.1-6l0.2,0l-0.1,8.4l-0.2,0l-0.1,8.4
		l0.1,0l-0.1,8.4l-0.2,0L286.4,63l-0.2,0l0,2.8l0.2,0l0,3.6l0.1,0L286,92.6l0.2,0l-0.2,3.8l-0.1,0l-0.2,12.2l0.7,0.2l-0.2,3.8
		l-0.6,0.2l-0.2,11l2.3,0.7l-0.2,3.8l-2.2,0.8l-0.2,8.2l3.9,1.2l-0.1,1.8h0.9l-1.1,34l-91.9-1l0.9-37.4l0.5-0.1l0-7.9l-2.2-0.8
		l-0.1-2.4l-0.4-1.6l2.7-0.7l0-10.8l-0.6-0.2l0-0.2l-0.3-0.1l0.3-1.9l0-1.6l0.3-0.1l0-0.3l0.3-0.1l0-11.9l-0.1,0l0-1.3H198l-0.1,4.3
		h-0.2l0.1-4.3h0l0.4-10.7l-0.6-0.1l0.5-3.4l0.3-0.2l0-1.9h-0.1l0.1-4.3l0-5l0.1,0l0-1.1l-0.4-3l0.6-0.3l0.1-1.9l-0.1,0l0.1-11.2
		l-0.2,0l0.1-8.4l0.1,0l0.1-8.4l-0.2,0l0.1-8.4l0.2,0l-0.1,6l0.3,0l-0.1-7.9h0.3l0.1,4.5l0.1,0l0,2.8l0,0.7l0.2,0l0-0.3h0.2l0.1-2.2
		h-0.1l0.5-14.2h0l0.1-4.3h0.2l-0.1,4.3h0.7l0.1-3.4h0.2l-0.1,3.4h0.3l0.2-6h0.2l-0.3,8.4h-0.2l-0.3,8.4h0.1l-0.3,8.4H201l0,0.3
		l0,0.7l0.3,0l0-3.4l0.2,0l0,3.4l0.8,0l0-4.3l0.2,0l0,4.3l0,0l-0.1,13.7l1.3-0.8l0-0.6l-0.2,0l0.1-8.4l0.1,0l0.1-8.4l-0.2,0l0.1-8.4
		l0.2,0l-0.1,6l0.3,0l0-3.4l0.2,0l0,3.4l0.7,0L205,46.9L205,46.9z M204.6,60.1l0-1.1h0.1l0-0.7l0.2,0l0-4.2l3.4,0.7l-0.1,3.2
		L204.6,60.1L204.6,60.1z M204.9,75.6l0-0.2l-0.1,0l0-6.7l7.4,1.3l0,1.4L204.9,75.6L204.9,75.6z M204.8,90.6l0-1.2l0,0l0-5.3l7,1
		l0,1.4L204.8,90.6L204.8,90.6z M204.8,104.8l0-9.2l8.4,1.6l-0.2,4.8L204.8,104.8z M204.7,120.7l0-8.5l8,1.2l-0.2,5.5L204.7,120.7
		L204.7,120.7z M204.7,134.7l0-6.9l7.5,0.7l-0.2,5.2L204.7,134.7z M214.8,97.5l-0.1,3.5l2.4-1.4l0.1-1.7L214.8,97.5"/>
	<path id="path275" class="st0" d="M169.7,108.7l-0.5-0.1l0,0.4L169.7,108.7z M167.3,124.4l0.1-2.1l-2-0.4l-0.1,3.7L167.3,124.4
		L167.3,124.4z M170,122.9l-1.3-0.2l0,1L170,122.9L170,122.9z M166.9,137.5l0.1-1.8l-2-0.4l-0.1,3.4L166.9,137.5L166.9,137.5z
		 M169.3,136.1l-1-0.2l0,0.8L169.3,136.1L169.3,136.1z M156,74.4h-0.3l-0.1,1.7l0.3-0.2L156,74.4z M175.8,43.7l-0.1,1.9h0.4l0.1-1.9
		H175.8z M176.8,43.7h-0.4l-0.1,1.9h0.4L176.8,43.7z M166.7,45.5l-0.1,1.9h0.4l0.1-1.9H166.7z M164.6,97.3l0,0.2l0.3-0.2l0,0
		L164.6,97.3L164.6,97.3z M164.9,84.2l0,0.2l0.3-0.2L164.9,84.2L164.9,84.2z M167.6,45.5h-0.4l-0.1,1.9h0.4L167.6,45.5z M161.1,53
		l-0.1,1.9h0.4l0.1-1.9H161.1z M162,53h-0.4l-0.1,1.9h0.4L162,53z M170,49.8l-0.1,1.9h0.4l0.1-1.9H170z M170.9,49.8h-0.4l-0.1,1.9
		h0.4L170.9,49.8z M163.6,50.5l-0.1,1.9h0.4l0.1-1.9H163.6z M162.6,72.2l0-1l-1.1-0.2l-0.1,1.8L162.6,72.2L162.6,72.2z M164.6,50.5
		h-0.4l-0.1,1.9h0.4L164.6,50.5z M173.8,50.8l-0.1,1.9h0.4l0.1-1.9H173.8z M174.8,50.8h-0.4l-0.1,1.9h0.4L174.8,50.8z M182.8,49.6
		l0.1,1.9l0.4-0.1l-0.1-1.9L182.8,49.6z M183.8,49.4l-0.4,0.1l0.1,1.9l0.4-0.1L183.8,49.4z M214.4,87.3l0-0.9l-1.5,0.5L214.4,87.3z
		 M214.2,99.5L214.2,99.5L214.2,99.5L214.2,99.5z M213.9,113.4l0-1.5l-2,0.7l0,0.3L213.9,113.4z M213.6,126.6l0-0.4l-0.6,0.2
		L213.6,126.6z M219.4,88.7l0.1-4.1l-3.9,1.3l0,1.6L219.4,88.7z M219.1,100.9l0.1-3.2l-3.9,1.3l0,0.7L219.1,100.9z M218.9,114.9
		l0.1-4.6l-3.9,1.3l0,2.1L218.9,114.9z M218.6,128.1l0.1-3.5l-3.9,1.3l0,1.1L218.6,128.1z M218.4,139.8l0-1.1l-1.8,0.6L218.4,139.8z
		 M223.1,102l0.1-5.7l-3,1l-0.1,3.8L223.1,102z M222.8,116l0.1-7.1l-3,1l-0.1,5.2L222.8,116z M222.6,129.2l0.1-6l-3,1l-0.1,4.1
		L222.6,129.2z M222.3,140.9l0.1-3.6l-3,1l0,1.7L222.3,140.9z M225.8,102.8l0.1-7.4l-1.7,0.6l-0.1,6.3L225.8,102.8z M225.5,116.8
		l0.2-8.8l-1.7,0.6l-0.2,7.7L225.5,116.8z M225.3,130l0.2-7.7l-1.7,0.6l-0.1,6.6L225.3,130z M225.1,141.7l0.1-5.3l-1.7,0.6l-0.1,4.2
		L225.1,141.7z M188.7,42.8l0,1.9l0.4,0l0-1.9L188.7,42.8z M189.8,45.1l0,2.1l-0.1,0l-0.1,1.9l-0.1,7.3l0.3,0.1l0.5-23L189.8,45.1z
		 M189.6,42.8l-0.4,0l0,1.9l0.4,0L189.6,42.8L189.6,42.8z M190.5,50.9l0,1.9l0.4,0l0-1.9L190.5,50.9z M191.5,50.8l-0.3,0l0,1.9
		l0.3,0L191.5,50.8z M195.4,51.6l0,1.9l0.4,0l0-1.9L195.4,51.6L195.4,51.6z M196.3,51.5l-0.4,0l0,1.9l0.4,0L196.3,51.5z M207.6,52.7
		l0,1.9l0.4,0l0-1.9L207.6,52.7z M208.6,52.7l-0.4,0l0,1.9l0.4,0L208.6,52.7L208.6,52.7z M212.5,56.2l0,1.9l0.4,0l0-1.9L212.5,56.2
		L212.5,56.2z M213.4,56.2l-0.4,0l0,1.9l0.4,0L213.4,56.2L213.4,56.2z M215.1,53.7l0,1.9l0.4,0l0-1.9L215.1,53.7z M214.5,75.5l0-1.1
		l-1.2,0.4l0,0.3L214.5,75.5z M216,53.6l-0.4,0l0,1.9l0.4,0L216,53.6L216,53.6z M217.6,73.5l0,2.5l0.4,0l0-2.5L217.6,73.5
		L217.6,73.5z M217.4,76l0-2.5l-0.2,0l-0.1,0l0,2.4L217.4,76z M217.5,59.3l0,1.9l0.4,0l0-1.9L217.5,59.3z M216.9,76.2l0-2.6
		l-1.1,0.4l0,1.9L216.9,76.2L216.9,76.2z M218.5,59.2l-0.4,0l0,1.9l0.4,0L218.5,59.2z M224,75l0,2.5l0.4,0l0-2.5L224,75L224,75z
		 M223.8,77.5l0-2.5l-0.3,0l0,2.5L223.8,77.5L223.8,77.5z M223.9,60.8l0,1.9l0.4,0l0-1.9L223.9,60.8L223.9,60.8z M223.4,78.1l0-0.2
		l-0.1,0l0.1-6.4l-5,1.7l0,0.3l-0.1,0l0,2.5l0.2,0l0,0.7L223.4,78.1L223.4,78.1z M223.5,83.9l-0.1,0l0-0.5l-2.8,1l-0.1,4.7l2.9,0.8
		L223.5,83.9L223.5,83.9z M224.8,60.7l-0.4,0l0,1.9l0.4,0L224.8,60.7z M226.4,82.3l0,1.2l0.4,0l0-2.5l-0.2,0l-0.1,1.2L226.4,82.3z
		 M226.2,83.6l0-1.2l-0.3,0.1l0,1.1L226.2,83.6z M226.3,66.9l0,0.2l0.3,0.1l-0.1,1.6l0.1,0l0-1.9L226.3,66.9z M225.8,78.8l0-2.1h0
		l0.1-6l-1.1,0.4l0,4l-0.1,0l0,2.5l0.2,0l0,1L225.8,78.8z M226.1,89.9l-0.4,0l0.1-6l-0.1,0l0-1.4l-1,0.3l0,0.9l-0.2,0l-0.1,6.4
		l1.7,0.5L226.1,89.9L226.1,89.9z M227.2,66.8l-0.4,0l0,1.9l0.4,0L227.2,66.8L227.2,66.8z M228.4,77.9l0,2.5l0.4,0l0-2.5L228.4,77.9
		z M229.2,63.6l-0.4,0l0,1.9l0.4,0L229.2,63.6z M227.9,91.2l0.1,0l0.1-4.5l-0.1,0L227.9,91.2L227.9,91.2z M227.5,103.3l0.3,0.1
		l0.2-8.6l-0.2,0.1L227.5,103.3L227.5,103.3z M227,117.2l0.5,0.1l0.2-10l-0.3,0.1L227,117.2L227,117.2z M226.6,130.4l0.7,0.2
		l0.2-8.9l-0.5,0.2L226.6,130.4z M226.2,142l0.8,0.2l0.1-6.5l-0.7,0.2L226.2,142L226.2,142z M226.6,121.9l-0.2,0.1l-0.2,8.3l0.1,0
		L226.6,121.9z M227.1,107.6l-0.4,0.1l-0.2,9.4l0.3,0.1L227.1,107.6z M227.5,94.9l-0.6,0.2l-0.2,8l0.4,0.1L227.5,94.9z M228.1,77.9
		l-0.2,0l0,2.5l0.1,0L228.1,77.9L228.1,77.9z M228.6,63.7l-0.3,0l0,1.9l0.3,0L228.6,63.7L228.6,63.7z M199.4,53.5l0,1.9l0.4,0l0-1.9
		L199.4,53.5z M200.4,53.4l-0.4,0l0,1.9l0.4,0L200.4,53.4z M202,50.9l0,1.9l0.4,0l0-1.9L202,50.9z M202.9,50.9l-0.4,0l0,1.9l0.4,0
		L202.9,50.9z M204.5,56.5l0,1.9l0.4,0l0-1.9L204.5,56.5z M205.4,56.5l-0.4,0l0,1.9l0.4,0L205.4,56.5L205.4,56.5z M154.3,101.6
		l0.4-0.1l0.2-5.6l-0.6-0.1L154.3,101.6L154.3,101.6z M154.3,115.2l1.7-0.6l0-7.2l0,0l0,1.3h-0.2l0-1.4l-1.1-0.4l0,0.3h-0.2l0-0.3
		l-0.2-0.1L154.3,115.2z M154.3,128.8l0.8-0.2l0.9-0.3l0-6.6l-1.7-0.6L154.3,128.8L154.3,128.8z M154.3,140.5l1.7-0.5l0-4.2
		l-1.7-0.6L154.3,140.5L154.3,140.5z M156.3,75.7l0.2-0.1l0-1.2h-0.2L156.3,75.7L156.3,75.7z M157.1,59.6l-0.4,0l0,1.9l0.4,0
		L157.1,59.6z M156.2,59.5l0,1.9l0.4,0l0-1.9L156.2,59.5z M154.1,82.4l-0.4-0.1v0.1L154.1,82.4L154.1,82.4L154.1,82.4z M154.3,82.4
		L154.3,82.4L154.3,82.4L154.3,82.4z M154.9,76.5l0.6-0.3l0.1-2.2h0.1l0.1-4.1l-0.8-0.2l-0.1,5.7h0L154.9,76.5L154.9,76.5z
		 M154.3,88.8l0,0.7l0.7-0.2h0l0.2-6.7l-0.4-0.1l0,0.3l-0.1,0l-0.1,6L154.3,88.8L154.3,88.8z M153.6,65.6l0,0.4l0.4-0.2l0-0.1
		L153.6,65.6z M151.8,78.1h0.2l0,0l0-1.3l-0.3,0L151.8,78.1L151.8,78.1z M151.7,62.4l0,1.9l0.2,0l0.1-1.9L151.7,62.4L151.7,62.4z
		 M152.6,102.1l-0.1-6.6l-0.1,0l-0.1,3.7l0,2.9L152.6,102.1L152.6,102.1z M152.8,115.7l-0.1-9.4l-0.3-0.1l0,9.7L152.8,115.7
		L152.8,115.7z M152.9,129.1l-0.1-8.5l-0.5-0.2l0,8.8L152.9,129.1z M153.1,140.8l-0.1-6l-0.7-0.2l0,6.4l0.5-0.1L153.1,140.8
		L153.1,140.8z M153.1,120.7l0.1,8.3l0.1,0l0-8.3L153.1,120.7L153.1,120.7z M152.9,106.4l0.1,9.3l0.3-0.1l0-9.1L152.9,106.4z
		 M152.8,95.6l0.1,6.5l0.4-0.1l0-6.3L152.8,95.6L152.8,95.6z M152.5,76.8l0,1.1l0.1-0.1l0-1L152.5,76.8z M152.6,64.4L152.6,64.4
		l0.1-1.9l0,0L152.6,64.4z M152.4,62.5l0,1.6L152.4,62.5L152.4,62.5z M152.9,48L152.9,48l-0.1,1.9h0.1L152.9,48z M153.1,49.9
		L153.1,49.9l0.1-1.9h-0.1L153.1,49.9z M152.9,64.4l0.1-2.2h0l0,0.3l-0.1,0l0,1.9L152.9,64.4z M153.6,82.3l-0.7-0.1l-0.1,3.3l0,0.2
		h0l-0.1,1.9l0,0.4h0.1l-0.1,2.1l0.6-0.2l0-7.4l0.1,0v0L153.6,82.3L153.6,82.3z M153.4,69.5L153.4,69.5l-0.3,6.1h-0.2l0,0.2l0,1.8
		l0.6-0.3l0.1-7.2l-0.1,0L153.4,69.5L153.4,69.5z M153.6,55.4l-0.2,6.8h-0.1l-0.1,2.5h0.2l0,1.5l0.2-0.1l0-3.3l0.1,0L153.6,55.4
		L153.6,55.4L153.6,55.4z M153.7,49.9L153.7,49.9l0.1-1.9h-0.4l-0.1,1.9h0.2l0-1.8l0.2,0L153.7,49.9L153.7,49.9z M157.2,63.9
		l3.2-1.9l0.2-7.1h0.2l0.1-1.9h-0.1l0.4-12.4h0l0.1-3.7h0.2l-0.1,3.7h0.7l0.1-3h0.2l-0.1,3h0.3l0.2-5.2h0.2l-0.2,7.3h-0.2l-0.2,7.3
		h0.1l-0.2,7.3h-0.1l-0.1,3.7l1.1-0.6l0-0.3h0l0.3-7.9h0.2l0.1-1.9h-0.1l0.4-12.4h0l0.1-3.7h0.2l-0.1,3.7h0.7l0.1-3h0.2l-0.1,3h0.3
		l0.2-5.2h0.2l-0.2,7.3H165l-0.2,7.3h0.1l-0.2,7.3h-0.1l-0.2,4.8l1.6-0.9l0.1-3.6h0l0.3-7.9h0.2l0.1-1.9h-0.1l0.4-12.4h0l0.1-3.7
		h0.2l-0.1,3.7h0.7l0.1-3h0.2l-0.1,3h0.3l0.2-5.2h0.2l-0.2,7.3h-0.2l-0.2,7.3h0.1l-0.2,7.3h-0.1l-0.3,8.1l2.1-1.2l0.2-5.1h0.2
		l0.1-1.9h-0.1l0.4-12.4h0l0.1-3.7h0.2l-0.1,3.7h0.7l0.1-3h0.2l-0.1,3h0.3l0.2-5.2h0.2l-0.2,7.3h-0.2l-0.2,7.3h0.1l-0.2,7.3h-0.1
		l-0.1,1.7l2.6-1.5l0.1-1.8h0.2l0.1-1.9h-0.1l0.4-12.4h0l0.1-3.7h0.2l-0.1,3.7h0.7l0.1-3h0.2l-0.1,3h0.3l0.2-5.2h0.2l-0.2,7.3h-0.2
		l-0.2,7.3h0.1l-0.2,5.7l0.3-0.2l0.3-7.8h0.2l0.1-1.9h-0.1l0.4-12.4h0l0.1-3.7h0.2l-0.1,3.7h0.7l0.1-3h0.2l-0.1,3h0.3l0.2-5.2h0.2
		l-0.2,7.3h-0.2l-0.2,7.3h0.1l-0.2,7.3h-0.1l-0.2,4.5l6.3,1.8l-0.2-2.9l0.2,0l-0.1-1.9l-0.1,0l-0.8-12.2l0,0l-0.3-3.7l0.2,0l0.3,3.7
		l0.7-0.2l-0.2-3l0.2,0l0.2,3l0.3-0.1l-0.4-5.1l0.2,0l0.5,7.3l-0.2,0l0.5,7.3l0.1,0l0.5,7.3l-0.1,0l0.1,1.1l3.9,1.1l0-3.4l0,0
		l0.1-7.9l0.2,0l0-1.9l-0.1,0l0.1-12.3l0,0v0h1.5l0,2.1l-0.2,0l-0.1,7.3l0.1,0l0,2.5l0.5-11.9h0.1l-0.6,26.1l0.2,0.1l0-3.8l0.2,0
		l0-1.9l-0.1,0l0.1-12.3l0,0l0-3.7l0.1,0l0.1-4.3h0.1l-0.1,8l0.6,0l0-3l0.1,0l0.1-5h0.1l-0.2,8l0.3,0l0.1-5.2l0.2,0l-0.1,7.3l-0.2,0
		l-0.1,7.3l0.1,0l-0.1,7.3l-0.1,0l0,1.7l3.5,1l0.1-4.5l0.2,0l0-1.9l-0.1,0l0.1-12.3h0l0-3.7l0.2,0l0,3.7l0.7,0l0-3l0.2,0l0,3l0.3,0
		l0.1-5.2l0.2,0l-0.1,7.3l-0.2,0l-0.1,7.3l0.1,0l-0.1,7.3l-0.1,0l0,2.4l0.7,0.2l0,0.1l2.1,0.5l0-3.8l0.2,0l0-1.9l-0.1,0l0.1-12.3
		l0,0l0-3.7l0.2,0l0,3.7l0.7,0l0-3l0.2,0l0,3l0.3,0l0.1-5.2l0.2,0l-0.1,7.3l-0.2,0l-0.1,7.3l0.1,0l-0.1,7.3l-0.1,0l0,1.6l1.2,0.3
		l0.1-7l0.2,0l0-1.9l-0.1,0l0.1-12.3l0,0l0-3.7l0.2,0l0,3.7l0.7,0l0-3l0.2,0l0,3l0.3,0l0.1-5.2l0.2,0l-0.1,7.3l-0.2,0l-0.1,7.3
		l0.1,0l-0.1,7.3l-0.1,0l-0.1,4.8l1.2,0.3l0-2.1l0.2,0l0-1.9l-0.1,0l0.1-12.3l0,0l0-3.7l0.2,0l0,3.7l0.7,0l0-3l0.2,0l0,3l0.3,0
		l0.1-5.2l0.2,0l-0.1,7.3l-0.2,0l-0.1,7.3l0.1,0l-0.1,7.3l-0.1,0l0,0.1l1.8,0.5l0.1-6.9l0.2,0l0-1.9l-0.1,0l0.1-12.3l0,0l0-3.7
		l0.2,0l0,3.7l0.7,0l0-3l0.2,0l0,3l0.3,0l0.1-5.2l0.2,0l-0.1,7.3l-0.2,0l-0.1,7.3l0.1,0l-0.1,7.3l-0.1,0l-0.1,4.8l3.5,1l0.1-4.8
		l0.2,0l0-1.9l-0.1,0l0.1-12.3l0,0l0-3.7l0.2,0l0,3.7l0.7,0l0-3l0.2,0l0,3l0.3,0l0.1-5.2l0.2,0l-0.1,7.3l-0.2,0l-0.1,7.3l0.1,0
		l-0.1,7.3l-0.1,0l0,2.7l1.2,0.3l0-0.2h0l0.1-7.9l0.2,0l0-1.9l-0.1,0l0.1-12.3l0,0l0-3.7l0.2,0l0,3.7l0.7,0l0-3l0.2,0l0,3l0.3,0
		l0.1-5.2l0.2,0l-0.1,7.3l-0.2,0l-0.1,7.3l0.1,0l-0.1,7.3l-0.1,0l-0.1,6l1.2,0.3l0-3.2l0.2,0l0-1.9l-0.1,0l0.1-12.3h0l0-3.7l0.2,0
		l0,3.7l0.7,0l0-3l0.2,0l0,3l0.3,0l0.1-5.2l0.2,0l-0.1,7.3l-0.2,0l-0.1,7.3l0.1,0l-0.1,7.3l-0.1,0l0,1.1l5,1.4l0-3.6l0.2,0l0-1.9
		l-0.1,0l0.1-12.3h0l0-3.7l0.2,0l0,3.7l0.7,0l0-3l0.2,0l0,3l0.3,0l0.1-5.2l0.2,0l-0.1,7.3l-0.2,0l-0.1,7.3l0.1,0l-0.1,7.3l-0.1,0
		l0,1.5l1.3,0.4l0-0.1l-0.1,0l0.1-12.3l0,0l0-3.7l0.2,0l0,3.7l0.7,0l0-3l0.2,0l0,3l0.3,0l0.1-5.2l0.2,0l-0.1,7.3l-0.2,0l-0.1,7.3
		l0.1,0l-0.1,7.3l-0.1,0l-0.1,9.8l-0.1,0l0,2.5l0.2,0l0,0l0.1,0l-0.1,7.4l0.6,0.2l0.1-4.3l-0.1,0l0.1-6l-0.1,0l0.1-7.3h0l0.1-7.9
		l0.2,0l0-1.9l-0.1,0l0.1-12.3l0,0l0-3.7l0.2,0l0,3.7l0.6,0l0-0.6l0-2.4l0.1,0l0.1-3.9h0.2l-0.2,6.9l0.3,0l0.1-5.2l0.2,0l-0.1,7.3
		l-0.2,0l-0.1,7.3l0.1,0l-0.1,7.3l-0.1,0l-0.1,9.8l-0.1,0l0,2.5l0.2,0l0,3.1l0.1,0l-0.4,20.2l0.1,0l-0.1,3.3l-0.1,0l-0.2,10.6
		l0.6,0.2l-0.1,3.3l-0.5,0.2l-0.2,9.6l2,0.6l-0.1,3.3l-2,0.7l-0.1,7.2l3.5,1l-0.1,1.5h0.8l-1,29.6l-81.3-0.9l0.8-32.6l0.4-0.1l0-6.9
		l-2-0.7l0-2.1l-0.4-1.4l2.4-0.6l0-9.4l-0.5-0.2l0-0.1l-0.3,0l0.3-1.7l0-1.4l0.3-0.1l0-0.3l0.3-0.1l0-10.4l-0.1,0l0-1.1H151
		l-0.1,3.7h-0.2l0.1-3.7h0l0.3-9.3l-0.5-0.1l0.5-3l0.3-0.2l0-1.7h-0.1l0.1-3.8l0-4.4l0.1,0l0-1l-0.3-2.6l0.5-0.3l0.1-1.6l-0.1,0
		l0.1-9.8l-0.1,0l0.1-7.3l0.1,0l0.1-7.3l-0.2,0l0.1-7.3l0.2,0l0,5.2l0.3,0l-0.1-6.9h0.2l0,3.9l0.1,0l0,2.4l0,0.6l0.2,0l0-0.2h0.2
		l0.1-1.9h-0.1l0.4-12.4h0l0.1-3.7h0.2l-0.1,3.7h0.7l0.1-3h0.2l-0.1,3h0.3l0.2-5.2h0.2l-0.2,7.3h-0.2l-0.2,7.3h0.1l-0.2,7.3h-0.1
		l0,0.2l0,0.6l0.3,0l0-3l0.2,0l0,3l0.7,0l0-3.7l0.2,0l0,3.7h0l-0.1,11.9l1.2-0.7l0-0.6l-0.1,0l0.1-7.3l0.1,0l0.1-7.3l-0.2,0l0.1-7.3
		l0.2,0l0,5.2l0.3,0l0-3l0.2,0l0,3l0.6,0L157.2,63.9L157.2,63.9z M156.9,75.4l0-1h0.1l0-0.6l0.2,0l0-3.6l3,0.6l-0.1,2.8L156.9,75.4
		L156.9,75.4z M157.1,88.8v-0.2l0,0l0-5.8l6.5,1.1l0,1.2L157.1,88.8z M157.1,101.9l0-1.1l0,0l0-4.6l6.2,0.9l0,1.2L157.1,101.9
		L157.1,101.9z M157,114.3l0-8l7.4,1.4l-0.1,4.2L157,114.3L157,114.3z M157,128.1l0-7.4l7,1l-0.2,4.7L157,128.1z M156.9,140.4l0-6
		l6.6,0.6l-0.2,4.5L156.9,140.4z M165.8,108l-0.1,3.1l2.1-1.2l0-1.5L165.8,108"/>
	<path id="path277" class="st0" d="M369.5,42.6l-0.4,0l0,1.3h0l0,2.9l0.4,0L369.5,42.6z M370.1,42.6L370.1,42.6l-0.1,1.3l-0.3,0
		l0,2.9l0.4,0L370.1,42.6z M370.7,43.8L370.7,43.8l-0.1-1.3l-0.2,0l0.1,4.2l0.3,0L370.7,43.8z M370.9,60.4l-0.1,0l0-1.8l-0.6,0
		l0,1.8l-0.2,0l0,2.7l0.4,0l-0.1-4.5l0.3,0l0.1,4.5l0.3,0L370.9,60.4L370.9,60.4z M333,44.9l-0.4,0l0,1.2h0l0,2.9l0.4,0L333,44.9
		L333,44.9z M333.6,44.8L333.6,44.8l0,1.2h-0.3l0,2.9l0.4,0L333.6,44.8L333.6,44.8z M334.2,46.1L334.2,46.1l-0.1-1.3l-0.2,0l0.1,4.1
		l0.3,0L334.2,46.1z M326.9,47.8l-0.4,0l0,1.3h0l0,3l0.4,0L326.9,47.8L326.9,47.8z M327.4,47.8L327.4,47.8l0,1.3h-0.3l0,2.9l0.4,0
		L327.4,47.8L327.4,47.8z M328.1,49L328.1,49l-0.1-1.3l-0.2,0l0.1,4.2l0.3,0L328.1,49L328.1,49z M327.4,66.1h0.4l-0.1-2.3l0.3,0
		l0.1,2.3h0.3l0-0.4l-0.2,0l0-1.8l-0.6,0l0,1.8h-0.2L327.4,66.1z M326.7,66.1h0.4v-2.2l-0.5,0l0,0.9l0,0L326.7,66.1L326.7,66.1z
		 M310.6,53l-0.4,0l0,1.2h0l0,2.9l0.4,0L310.6,53L310.6,53z M311.2,53L311.2,53l0,1.2h-0.3l0,2.9l0.4,0L311.2,53L311.2,53z
		 M311.8,54.2L311.8,54.2l-0.1-1.3l-0.2,0l0.1,4.1l0.3,0L311.8,54.2L311.8,54.2z M346.4,47.8l-0.4,0l0,1.2h0l0,2.9l0.4,0L346.4,47.8
		L346.4,47.8z M347,47.8L347,47.8l0,1.2h-0.3l0,2.9l0.4,0L347,47.8L347,47.8z M347.6,49L347.6,49l-0.1-1.3l-0.2,0l0.1,4.1l0.3,0
		L347.6,49z M351,42.2l-0.4,0l0,1.3h0l0,2.9l0.4,0L351,42.2z M351.5,42.2L351.5,42.2l-0.1,1.3l-0.3,0l0,2.9l0.4,0L351.5,42.2z
		 M352.2,43.5L352.2,43.5l-0.1-1.3l-0.2,0l0.1,4.2l0.3,0L352.2,43.5z M352.4,60l-0.2,0l0-1.8l-0.6,0l0,1.8h-0.2l0,2.7l0.4,0
		l-0.1-4.5l0.3,0l0.1,4.5l0.3,0L352.4,60z M369.2,59.5L369.2,59.5l0,3.6l0.4,0l0-4.5l0,0L369.2,59.5z M369.4,58.6l-0.2,0l0,0.4
		L369.4,58.6L369.4,58.6z M350.7,59.2L350.7,59.2l0,3.6l0.4,0l0-4.5l0,0L350.7,59.2z M346.3,67.8v0.1l0.4,0v-1L346.3,67.8z
		 M350.9,58.3l-0.2,0v0.4L350.9,58.3z M348,60.8l0.1,2.2h0l0,0.7l2.2-4.4l0-1l-0.1,0L348,60.8L348,60.8z M332.9,65l0.4,0v-0.4
		L332.9,65z M333.3,64.2v-3.7l-0.5,0l0,0.9l0,0l0,3.3L333.3,64.2L333.3,64.2z M333.8,63.9l-0.3,0.3l0,0.7l0.1,0l0.2-0.5l-0.1-3.9
		l0.3,0l0.1,3.4l0.1-0.2l0.2,0.1l0-1.5l-0.1,0l0-1.8l-0.6,0l0,1.8h-0.2l0,1.6l0.1-0.2L333.8,63.9L333.8,63.9z M334.2,64.7l0.1,0.2
		l0.2,0l0-1.1l-0.3,0.6L334.2,64.7L334.2,64.7z M346.7,64.7l-0.5-0.9l0,0.7h0l0,2.9l0.4-0.8L346.7,64.7L346.7,64.7z M347.2,65.6
		l-0.1-0.3H347l0,0.7L347.2,65.6z M347.3,65.8L347.3,65.8l-0.4,0.6l0,1.4l0.4,0L347.3,65.8L347.3,65.8z M347.9,67.1l-0.3-0.6l0,1.4
		l0.3,0L347.9,67.1L347.9,67.1z M347.6,66l0.3,0.6l0-1.3l-0.1,0l0-0.4l-0.2,0.3L347.6,66L347.6,66z M346.4,63.5l0.3,0.7v-0.7
		L346.4,63.5L346.4,63.5z M347.3,63.5L347.3,63.5l-0.1,0l0,1.5l0.1,0.3l0,0L347.3,63.5z M347.8,64.1l-0.2-0.2l0,0.8l0.2-0.3
		L347.8,64.1z M348.1,64.2l2.2,2.5l0-4h0l0-2.7l0,0v-0.3L348.1,64.2L348.1,64.2z M347.5,63.5L347.5,63.5L347.5,63.5l0.1,0.1l0.2,0.2
		l0-0.3L347.5,63.5z M41.3,97.9L39,97.8l1.2,2.2L41.3,97.9z M44.8,98l-0.9,0l0.9,1.6V98z M58.2,98.3l-1.7,0v3.1L58.2,98.3L58.2,98.3
		z M82.2,103.3l1.2,0.1v-4.4l-1.2,0V103.3z M78.6,103.1l1.2,0.1v-4.3l-3.5-0.1L78.6,103.1L78.6,103.1z M75.3,102.9l3,0.2L76,98.7
		l-0.7,0V102.9L75.3,102.9z M72.2,102.8l2.8,0.1v-4.2l-0.6,0L72.2,102.8L72.2,102.8z M62.2,102.3l9.7,0.5l2.2-4.1L69,98.6l2,3.7
		l-0.3,0.1l-2.1-3.8l-1.4,0v3.9h-0.3v-3.9l-1.3,0l-1.7,3.2l-0.3-0.1l1.7-3.2l-5.4-0.1L62.2,102.3L62.2,102.3z M59.3,102.1l2.7,0.1
		l-2.1-3.9l-0.6,0V102.1z M56.6,102l2.4,0.1v-3.8l-0.5,0L56.6,102L56.6,102z M47.2,101.5l4.5,0.2v-3.6L47.2,98V101.5z M42.7,101.3
		l2.1,0.1v-1.3l-1.1-2.1l-0.9,0V101.3L42.7,101.3z M40.8,101.2l1.7,0.1v-3.3l-0.9,0l-1.3,2.4L40.8,101.2z M39.8,101.1l0.6,0
		l-0.3-0.6L39.8,101.1z M37.9,101l1.6,0.1l0.4-0.8l-1.3-2.5l-0.7,0V101z M35.3,100.9l2.4,0.1v-3.2l-0.7,0L35.3,100.9L35.3,100.9z
		 M33.3,100.8l1.7,0.1l1.7-3.1l-3.4-0.1V100.8z M30.7,100.7l2.3,0.1v-3.1l-2.3-0.1V100.7L30.7,100.7z M29.9,100.6l0.6,0v-3l-0.6,0
		V100.6z M24.8,100.4l2.6,0.1v-2.9l-2.6-0.1V100.4z M24.2,100.4c0.1,0,0.3,0,0.4,0l0,0v-2.9l-0.4,0V100.4z M22.8,100.6
		c0.4-0.1,0.8-0.2,1.1-0.2v-2.9l-1.1,0V100.6L22.8,100.6z M22,100.9c0.2-0.1,0.4-0.1,0.5-0.2v-3.3l-0.5,0V100.9z M20.8,101.4
		c0.3-0.2,0.6-0.3,0.9-0.5v-3.6l-0.9,0V101.4z M17.5,104.2l0.9-0.8v-6.1l-0.9,0V104.2L17.5,104.2z M16.4,105.1l0.8-0.7v-7.1l-0.8,0
		V105.1L16.4,105.1z M15.2,106.1l0.9-0.8v-8.1l-0.9,0V106.1z M14.3,106.9l0.6-0.5v-9.1l-0.6,0L14.3,106.9L14.3,106.9z M13.6,107.5
		l0.5-0.4v-9.9l-0.5,0V107.5z M58.9,117.9l-2.3-0.1v4.4L58.9,117.9z M82.2,123.9l1.2,0.1v-5.2l-1.2,0V123.9z M56.6,122.7l2.6,0.1
		v-4.9l-0.1,0L56.6,122.7z M47.2,122.2l4.5,0.2v-4.8l-4.5-0.2V122.2z M24.2,121.2c0.4-0.1,0.7-0.1,1-0.1l2.3,0.1v-4.5l-3.3-0.1
		L24.2,121.2L24.2,121.2z M20.8,122.7c0.8-0.6,2-1.1,3.1-1.4v-4.7l-3.1-0.1V122.7z M13.6,128l4.9-3.5v-8l-4.9-0.2V128z M82.2,144.4
		l1.2,0v-6.8l-1.2,0V144.4L82.2,144.4z M69.1,144l2.5,0.1l-2.5-4.6V144z M57.3,143.6l2.3,0.1v-4.4L57.3,143.6z M56.6,143.6l0.4,0
		l2.6-4.8v-1.8l-3-0.1V143.6L56.6,143.6z M47.2,143.2l4.5,0.2v-6.7l-4.5-0.1V143.2z M21.6,143.9c1.8-0.4,4-0.7,5.8-1v-7l-3-0.1v7.5
		h-0.3v-7.5l-1.8-0.1v7.9h-0.3v-7.9l-0.5,0V143.9L21.6,143.9z M20.8,144.1c0.2,0,0.3-0.1,0.5-0.1v-8.2l-0.5,0V144.1z M17.1,145.8
		l1.3-0.8v-9.3l-1.3,0V145.8z M16,146.4l0.8-0.5v-10.3l-0.8,0V146.4z M13.6,148l2.2-1.4v-11l-2.2-0.1L13.6,148L13.6,148z
		 M82.2,167.2l1.2,0v-9.8l-1.2,0V167.2z M47.2,166.8l4.5,0v-9.7l-4.5,0V166.8z M20.8,166.5l6.6,0.1v-9.7l-6.6-0.1V166.5L20.8,166.5z
		 M13.6,168.4c1.2-0.3,2.7-0.7,4.9-1.6v-10.1l-4.9,0V168.4z M158.9,158l-17.1-0.1v9.9l17.1,0.2V158z M177.6,158.2l-16.3-0.1v9.9
		l16.3,0.2V158.2z M183.5,158.2c-1.1,0-2.3,0-3.5,0v10l3.5,0V158.2z M144.4,139.5l-2.6-0.1v7l2.6,0.1V139.5z M148.9,139.6l-4.3-0.1
		v7l4.3,0.1V139.6L148.9,139.6z M158.9,139.9l-9.7-0.3v7.1l9.7,0.3V139.9L158.9,139.9z M177.6,140.5l-16.3-0.5v7.1l16.3,0.6V140.5z
		 M144.4,121.1l-2.6-0.1v1l2.5,4.5l-0.3,0.1l-2.2-4.1v4.4l2.6,0.1L144.4,121.1L144.4,121.1z M148.9,121.2l-4.3-0.2v5.9l4.3,0.2
		V121.2L148.9,121.2z M152.4,121.4l-3.2-0.1v6l3.5,0.2v-6l-3,5.6l-0.3-0.1L152.4,121.4L152.4,121.4z M153,121.4L153,121.4l0,6
		l3.4,0.2L153,121.4L153,121.4z M158.9,121.6l-5.6-0.2l3.4,6.2l2.3,0.1V121.6L158.9,121.6z M177.6,122.3l-16.3-0.6v6.1l16.3,0.8
		V122.3L177.6,122.3z M152.9,106.8l2.8,0.1l-2.8-5.2V106.8z M150.1,106.7l2.6,0.1v-4.9L150.1,106.7z M141.8,106.2L141.8,106.2
		L141.8,106.2L141.8,106.2z M144.4,100.4l-2.6-0.1v5.4l0.3,0.6l2.3,0.1V100.4z M148.9,100.5l-4.3-0.1v6l4.3,0.2V100.5L148.9,100.5z
		 M152.7,100.6l-3.5-0.1v6.1l0.6,0l2.9-5.3L152.7,100.6L152.7,100.6z M158.9,100.7l-5.9-0.1v0.7l3.1,5.7l2.9,0.1L158.9,100.7
		L158.9,100.7z M177.6,101.2l-16.3-0.4v6.5l16.3,0.8V101.2z M183.5,101.3l-3.5-0.1v6.9l3.5,0.2V101.3L183.5,101.3z M187.3,101.4
		l-1.4,0v7.1l1.4,0.1V101.4L187.3,101.4z M187.3,78.1l-1.4,0v9.4l1.4,0.1V78.1L187.3,78.1z M188.7,78.2l-1.1,0v9.5l1.1,0.1V78.2z
		 M201.6,83.5l12.8-4.3v-0.4l-12.8-0.3V83.5z M195.7,85.4l3.4-1.1v-5.9l-3.4-0.1V85.4z M193.6,86.1l1.8-0.6v-7.2l-1.8,0L193.6,86.1
		L193.6,86.1z M191.6,86.8l1.8-0.6v-7.9l-1.8,0V86.8L191.6,86.8z M189,87.7l2.3-0.8v-8.7l-2.3-0.1L189,87.7L189,87.7L189,87.7z
		 M198.9,97.9h0.2v-4.1l-0.1,0L198.9,97.9L198.9,97.9z M191.6,102.8c0.3-0.4,0.6-0.8,0.9-1.2l-0.9,0V102.8L191.6,102.8z M189,106.3
		c0.7-1,1.5-2.1,2.3-3.2v-1.6l-2.3-0.1V106.3z M187.6,108.6c0.1-0.4,0.5-1,1.1-1.9v-5.2l-1.1,0L187.6,108.6L187.6,108.6L187.6,108.6
		z M332.3,100.5l-2.2,0.5l2.2,0.2V100.5z M337.2,99.4l-2.4,0.5v1.4l2.4,0.2V99.4z M343.1,98.1l-3.6,0.8v2.9l3.6,0.3V98.1z
		 M344.9,97.7l-1.5,0.3v4l1.5,0.1V97.7L344.9,97.7z M345.8,97.5l-0.7,0.2v4.6l0.7,0.1V97.5z M349.4,96.7l-1.1,0.3v5.5l1.1,0.1V96.7
		L349.4,96.7z M350.2,96.5l-0.6,0.1v5.9l0.6,0V96.5z M353.8,95.7l-1.2,0.3v6.8l1.2,0.1V95.7L353.8,95.7z M356.9,95l-2.8,0.6v7.3
		l2.8,0.2V95L356.9,95z M360.5,94.2l-3.4,0.8v8.2l3.4,0.3V94.2L360.5,94.2z M362.7,93.7l-1.9,0.4v9.3l1.9,0.1v-4.3h-0.3v-0.7h0.3
		V93.7L362.7,93.7z M364,93.4l-1.1,0.2v5h0.5v0.7H363v4.3l1.1,0.1v-6.2h-0.3v-0.7h0.3V93.4L364,93.4z M366.3,92.9l-2,0.5v3.4h0.5
		v0.7h-0.5v6.2l2,0.2V92.9L366.3,92.9z M337.2,84.2l-2.4,0.6l2.4,0.1V84.2z M342.8,82.8l-3.2,0.8V85c1.4,0,2.7,0.1,2.8,0.1
		c0.3,0,0.2,0.5,0.2,0.5l0.5,0v-2.3h-0.3L342.8,82.8L342.8,82.8z M344.9,82.2l-1.4,0.4h0.4v0.7h-0.5v2.4l1.5,0.1v-2.3h-0.3v-0.7h0.3
		V82.2L344.9,82.2z M345.8,82l-0.7,0.2v0.6h0.5v0.7h-0.5v2.3l0.7,0V82z M349.4,81.1l-1.1,0.3v4.6l1.1,0.1v-1.7h-0.3v-0.7h0.3V81.1z
		 M350.2,80.8l-0.6,0.1v2.6h0.5v0.7h-0.5V86l0.6,0V80.8z M353.8,79.9l-1.2,0.3v5.9l1.2,0.3v-1.5h-0.3v-0.7h0.3V79.9z M356.9,79.1
		l-2.8,0.7v4.3h0.5v0.7h-0.5v1.6l2.8,0.6v-4.2h-0.2v-0.7h0.2V79.1L356.9,79.1z M360.5,78.2l-3.4,0.9v3.2h0.4v0.7h-0.4v4.2l0.4,0.1
		l0.3,0.5l2.6,0.1v-7.5h-0.3v-0.8h0.3V78.2z M366.3,76.7l-5.5,1.4v1.5h0.2v0.8h-0.2v7.5l5.5,0.3v-6.7H366v-0.7h0.3V76.7L366.3,76.7z
		 M352.6,70.1l0.6,0.1l-0.6-0.7L352.6,70.1L352.6,70.1z M349.6,69.9l0.7,0.1l0-2.9l-2.2-2.5l0,2.5L349.6,69.9L349.6,69.9z
		 M348.3,69.8l1.1,0.1l-1.2-2.4l0,0.5l0.1,0l0,1.5h0.1L348.3,69.8L348.3,69.8z M345.4,69.5l0.4,0v-0.1h0.1l0-1L345.4,69.5z
		 M341.4,68.3l0.7,0l0.4,1c0,0,1.1,0.1,2.7,0.2l0.8-1.5v0l0,0l0,0l0-2.6h0l0-1.7l-0.2,0l0-0.2L341.4,68.3L341.4,68.3z M335.9,68
		l1.3,0.1v-0.4l-2.4-2.7V65l0.1,0l0,0.8L335.9,68L335.9,68z M334.8,67.9l0.9,0.1l-0.9-1.7l0,0.7V67.9z M330.5,67.6l1.8,0.1l0-0.1v-2
		h0.2l0-0.2L330.5,67.6z M362.6,71.9l6.2-12.2v-1l-11.4,12.9l3.1,0.2v0h0.3v0.1L362.6,71.9L362.6,71.9z M368.7,72.3v-1h0.1l0-8.1
		l0,0l0-2.7h0l0-0.3l-6,11.8L368.7,72.3L368.7,72.3z M368.7,88.3V76l-2.1,0.6v4.2h0.5v0.7h-0.5v6.7L368.7,88.3L368.7,88.3z
		 M368.7,104V92.3l-2.1,0.5v11.1L368.7,104z M183.5,140.7l-0.3,0v0l-3.1-0.1v7.2l3.5,0.1V140.7L183.5,140.7z M332.3,148.1l-2.6,0.6
		l2.6,0.2V148.1z M337.2,147.1l-2.4,0.5v1.5l2.4,0.2V147.1z M343.1,145.7l-3.6,0.8v3l3.6,0.3V145.7z M344.9,145.3l-1.5,0.3v4.1
		l1.5,0.1V145.3L344.9,145.3z M345.8,145.1l-0.7,0.2v4.7l0.7,0.1V145.1L345.8,145.1z M349.4,144.3l-1.1,0.3v5.6l1.1,0.1V144.3z
		 M350.2,144.1l-0.6,0.1v6l0.6,0V144.1z M353.8,143.3l-1.2,0.3v6.9l1.2,0.1V143.3L353.8,143.3z M356.9,142.6l-2.8,0.6v7.4l1.1,0.1
		h1.7V142.6L356.9,142.6z M360.5,141.8l-3.4,0.8v8.2h3.4V141.8L360.5,141.8z M362.7,141.3l-1.9,0.4v9h1.9V141.3z M364,141l-1.1,0.2
		v9.5h1.1V141L364,141z M366.3,140.5l-2,0.5v9.8h2V140.5z M368.7,139.9l-2.1,0.5v10.3h2.1V139.9L368.7,139.9z M337.2,131.8l-2.4,0.6
		v0.1l2.4,0.1V131.8z M343.1,130.3l-3.6,0.9v1.5c1.3,0,2.3,0.1,2.4,0.1c0.3,0,0.2,0.5,0.2,0.5l0.9,0L343.1,130.3L343.1,130.3z
		 M344.9,129.8l-1.5,0.4v3.2l1.5,0.1V129.8z M345.8,129.6l-0.7,0.2v3.7l0.7,0V129.6L345.8,129.6z M349.4,128.7l-1.1,0.3v4.7l1.1,0.1
		V128.7z M350.2,128.4l-0.6,0.1v5.1l0.6,0V128.4z M353.8,127.5l-1.2,0.3v6.1l1.2,0.3V127.5L353.8,127.5z M356.9,126.7l-2.8,0.7v6.8
		l2.8,0.6V126.7L356.9,126.7z M360.5,125.8l-3.4,0.9v8.3l0.1,0l0.3,0.5l3,0.2V125.8z M362.7,125.2l-1.9,0.5v9.9l1.9,0.1V125.2
		L362.7,125.2z M364,124.9l-1.1,0.3v10.6l0.2,0h0.9L364,124.9L364,124.9z M366.3,124.3l-2,0.5v11h2V124.3z M368.7,123.6l-2.1,0.6
		v11.5h2.1V123.6L368.7,123.6z M366.6,119.8l2.1,0.1v-12.1l-2.1,0.5V119.8z M364.3,119.7l2,0.1v-11.4l-2,0.4V119.7z M363,119.6
		l1.1,0.1v-10.8l-1.1,0.2V119.6z M360.8,119.5l1.9,0.1v-10.4l-1.9,0.4V119.5z M357.1,119.2l3.4,0.2v-9.8l-3.4,0.7V119.2z M354.1,118
		c0.2,0,0.3,0,0.5,0.1c1.6,0.3,1.8,0.6,1.8,0.6v0.5l0.5,0v-8.8l-2.8,0.6V118z M352.6,117.9c0.5,0,0.9,0.1,1.2,0.1v-6.9l-1.2,0.3
		V117.9z M349.7,117.6l0.6,0v-5.8l-0.6,0.1V117.6z M348.3,117.5l1.1,0.1V112l-1.1,0.2V117.5z M345.2,117.2l0.7,0.1v-4.5l-0.7,0.1
		V117.2L345.2,117.2z M343.4,117.1l1.5,0.1V113l-1.5,0.3V117.1L343.4,117.1z M339.6,115.9l2.1,0.1l0.4,1l1,0.1v-3.7l-3.6,0.8V115.9z
		 M334.7,115.6l2.4,0.1v-1.1l-2.4,0.5V115.6z M181.1,123.8v-1.3l0.3-0.1l-1.3-0.1v6.3l3.5,0.2v-3.2l-1.6,0c0,0,1-0.7,0.1-1.3
		L181.1,123.8z M364.3,166.7l4.4,0.3v-11.5l-4.4,0.9V166.7z M363,166.6l1.1,0.1v-10.2l-1.1,0.2V166.6z M352.6,164.8
		c2,0.2,3.7,0.3,4.3,0.4c1.6,0.3,1.8,0.7,1.8,0.7v0.5l3.9,0.3v-9.9l-8.6,1.8v1h-0.3v-1l-1.2,0.3L352.6,164.8L352.6,164.8z
		 M348.3,164.4c0.6,0.1,1.3,0.1,1.9,0.2v-5.1l-1.9,0.4V164.4z M339.6,162.8l4.5,0.3l0.4,1c0,0,0.5,0,1.3,0.1v-3.8l-6.2,1.3V162.8
		L339.6,162.8z M335.5,162.6l1.6,0.1v-0.4L335.5,162.6L335.5,162.6z M201.6,161.9l7.9-3.5c-2.7-0.1-5.4-0.3-7.9-0.4V161.9z
		 M196.4,157.7v6.4l2.7-1.2v-5.2c-0.7,0-1.3-0.1-2-0.1C196.9,157.7,196.7,157.7,196.4,157.7L196.4,157.7z M196.4,141.3v4.2h2.7v-4.1
		L196.4,141.3z M196.4,126v3.5l2.7,0.1v-3.6L196.4,126z M192.8,158v7.8l3.4-1.5v-6.5C195.1,157.8,194,157.9,192.8,158z M192.8,141.1
		v7l0.2,0c1.2-1.5,2.1-2.6,2.1-2.6h1.1v-4.3L192.8,141.1L192.8,141.1z M192.8,126v3.4l3.4,0.2V126l-0.5,0l0,3.5h-0.3V126l-1.6,0
		l1.3,3.5l-0.3,0.1l-1.4-3.5L192.8,126L192.8,126z M190.6,158.1v8.7l1.9-0.8V158C191.9,158,191.3,158,190.6,158.1z M190.6,141v7.1
		l1.9,0.1v-7L190.6,141z M190.6,125.9v3.3l1.9,0.1v-3.4l-1,0v3.4h-0.3l0-3.4L190.6,125.9L190.6,125.9z M189.3,158.1v9.2l1.1-0.5
		v-8.8C190,158.1,189.6,158.1,189.3,158.1z M189.3,141v7.1l1.1,0V141L189.3,141z M189.3,126.1v3.1l1.1,0.1v-3.3l-1,0L189.3,126.1
		L189.3,126.1z M186.7,129.1v-3.2l-0.8,0v3.2L186.7,129.1z M186.7,148v-7.1l-0.8,0v7.1L186.7,148L186.7,148z M186.7,168.2v-10.1
		c-0.3,0-0.5,0-0.8,0v10L186.7,168.2z M187,158.2v10.1l0.2,0l1.8-0.8v-9.3C188.4,158.1,187.7,158.2,187,158.2z M187,140.9v7.1l2,0.1
		V141L187,140.9z M187,125.8v3.2l2,0.1v-2.6l-1.2,2.5l-0.3-0.1l1.5-3v-0.1l-1.4,0v3.4h-0.3v-3.4L187,125.8L187,125.8z M43.2,157v9.7
		l1.6,0V157L43.2,157z M43.2,136.5v6.6l1.6,0.1v-6.7L43.2,136.5z M43.2,117.3v4.7l1.6,0.1v-4.7L43.2,117.3z M39.6,157v9.7l3.4,0V157
		C43,157,39.6,157,39.6,157z M39.6,136.3v6.6l3.4,0.1v-6.6L39.6,136.3L39.6,136.3z M39.6,117.2v4.7L43,122v-4.7L39.6,117.2
		L39.6,117.2z M37.4,157v9.7l1.9,0V157L37.4,157z M37.4,136.3v6.6l1.9,0.1v-6.6L37.4,136.3L37.4,136.3z M37.4,117.1v4.6l1.9,0.1
		v-4.7L37.4,117.1L37.4,117.1z M36.1,156.9v9.7l1.1,0V157C37.1,157,36.1,156.9,36.1,156.9z M36.1,136.2v6.6l1.1,0v-6.6
		C37.1,136.3,36.1,136.2,36.1,136.2z M36.1,117.1v4.6l1.1,0.1v-4.6L36.1,117.1L36.1,117.1z M33.5,121.6V117l-3.6-0.1v4.6L33.5,121.6
		z M33.5,142.8v-6.6l-3.6-0.1v6.6c0.2,0,0.4,0,0.5,0L33.5,142.8L33.5,142.8z M33.5,166.6v-9.7l-3.6,0v9.7L33.5,166.6z M33.8,156.9
		v9.7l2,0v-9.7L33.8,156.9z M33.8,136.2v6.6l2,0.1v-6.6L33.8,136.2z M33.8,117v4.6l2,0.1v-4.6L33.8,117z M76.1,120.1v-1.5l-0.8,0
		L76.1,120.1L76.1,120.1z M76.1,123.6v-3.1l-0.9-1.6v4.7L76.1,123.6z M76.1,144.2v-6.8l-0.9,0v6.8L76.1,144.2L76.1,144.2z
		 M76.4,157.3v9.8l3.4,0v-9.8L76.4,157.3L76.4,157.3z M76.4,137.5v6.8l3.4,0.1v-6.8L76.4,137.5z M76.4,121.2v2.5l1.4,0.1L76.4,121.2
		z M76.4,118.6v2.1l1.7,3.1l1.7,0.1v-5.1C79.8,118.7,76.4,118.6,76.4,118.6z M72.1,123.5L72.1,123.5L72.1,123.5L72.1,123.5z
		 M72.1,144.1v-6.8l-2.9-0.1v1.7l2.8,5.1L72.1,144.1z M72.4,157.3v9.8l3.7,0v-9.8L72.4,157.3L72.4,157.3z M72.4,137.3v6.8l2.6,0.1
		v-6.8L72.4,137.3z M72.4,122.8v0.7l2.3,0.1v-5L72.4,122.8L72.4,122.8z M72.4,118.4v3.8l2-3.8L72.4,118.4z M67.3,120.5v-2.3l-1.3,0
		L67.3,120.5z M67.3,123.2V121l-1.5-2.8v4.9L67.3,123.2z M67.3,143.9v-1.4l-0.7,1.4L67.3,143.9z M67.6,157.2v9.8l4.5,0v-9.8
		L67.6,157.2z M67.6,141.9v2l1.3,0v-4.4L67.6,141.9z M67.6,137.2v4.2l1.3-2.4v-1.8L67.6,137.2L67.6,137.2z M67.6,121.6v1.6l0.9,0
		L67.6,121.6z M67.6,118.2v2.9l1.2,2.2l3,0.1l0.3-0.5v-4.5L67.6,118.2L67.6,118.2z M64.7,157.2v9.8l2.5,0v-9.8L64.7,157.2z
		 M64.7,137.1v6.7l1.5,0.1l1-1.9v-4.8L64.7,137.1z M64.7,119.7v3.4l0.8,0v-4.8L64.7,119.7L64.7,119.7z M64.7,118.1v1.1l0.6-1
		L64.7,118.1z M63,157.2v9.8l1.4,0v-9.8L63,157.2z M63,137v6.7l1.4,0v-6.7L63,137L63,137z M63,123L63,123l1.4,0.1v-2.7L63,123z
		 M63,118.1v4.4l1.4-2.6v-1.7L63,118.1L63,118.1z M59.6,122.8v-4.9l-0.1,0L59.6,122.8L59.6,122.8L59.6,122.8z M59.6,166.9v-9.8l-3,0
		v9.8L59.6,166.9L59.6,166.9z M59.9,157.2v9.8l2.7,0v-9.8L59.9,157.2L59.9,157.2z M59.9,139.4v4.3l2.4,0.1L59.9,139.4L59.9,139.4z
		 M59.9,137v1.9l2.7,4.9l0,0V137L59.9,137L59.9,137z M59.9,118.5v4.4l2.4,0.1L59.9,118.5z M59.9,117.9L59.9,117.9l2.7,5V118
		L59.9,117.9z M368.8,43.2l0-0.6l-0.2,0l0-8.3l0,0l0-2.5l0.3,0l0,2.5l0.4,0l0-3.2l0.2,0l0,3.2l0.4,0l0-2l0.3,0l0,2l0.3,0l0-3.5
		l0.2,0l0,3.5l0.1,0l0,1.4l0,3l0.1,3l0,0v0.2l0,0.6h0l0,4.2l0.1,0l-0.1,2l0,4.3l0.1,5l0,0l0,5l0.1,0l-0.1,2l0,4.3l0.1,1.9h0v0.5
		l0,0.7l1.1,0.1l-0.1,1.5l-1,1.5v13.1l1.8,0.1l0,1.5l-1.4,0.6l-0.3,1.1v12.5l2.6,0.2c0,0,0.3,1.5,0,2c-0.3,0.5-2.6,1-2.6,1V120h0.4
		c0.7,0,1.3,0.4,1.3,0.8v1.8c0,0.4-0.6,0.8-1.3,0.8h-0.4v12.4h2.2c0.7,0,1.3,0.3,1.3,0.8v1.8c0,0.4-0.6,0.8-1.3,0.8h-2.2v11.6h1
		c0.7,0,1.3,0.4,1.3,0.8v0.9c0.1,0.5,0.1,1.3,0,1.7c-0.2,0.4-1.6,0.7-2.2,0.9v12.2l0.5,0h1.3c0.3,0,0.5,0,0.7,0.1l0.7,0l-0.1,1.5
		v0.9c0,0.4-0.6,0.8-1.3,0.8h-0.4l-1.4,0.4v4.3h-2.4v-3.7l-13.6,3.7H9.5c-1.7-1.3-3.4-3.2-2.7-3.7c2.4-1.1,3-2.4,4.3-2.6v-12.2
		l-3.3,0c-1.2,0-2.4-2.1-1.2-2.9l4.5-4.4v-14l-3.4-0.1c-0.4,0-0.4-0.5-0.7-0.9c-0.6-1-1-1.1-0.2-1.7l4.2-3.1v-13.6l-1.5-0.1
		c-0.6,0-0.4-1.6-0.9-2.3c-0.5-0.7-1.8-0.6-1.2-1.1l3.6-3.1V97.1l-1.5,0c-1.1,0-2.6-3.8-1.4-4.6l2.9-2.1V83h2.4v5.7l4.9-3.5V76h2.4
		v7.3l4.4-3.2c0.6-0.4,1.4-0.8,2.2-1.1v-7.5h2.4v7.1l14.9,0.8v-1.1h2.4v1.2l4.5,0.3v-1.4h2.4v-4.9h2.4v6.6l23.2,1.3v-6.2h2.4v6.3
		l1.2,0.1v-7.4h2.4v7.6l19.7,1.1v-5.9h2.4v6l0.6,0v-7.4h2.4v7.6l5.8,0.3v-0.7h0.3v0.7l41.8,2.4v-7.5h2.4v7.6l16.3,0.9v-5.8h2.4v5.9
		l3.5,0.2V78l-1.2,0c0,0,1-0.7,0.1-1.3l-0.9-0.6v-1.3l2.1-0.9v-6.3h2.4v5.2l13.2-5.6v-6.5h2.4v5.5l12.8-5.5v-7.3h2.4v7.4l38.5,2.3
		V58h2.4v5.3l2.4,0.1v-7.9h2.4v8l3.7,0.2v-6h0.3v6l1.1,0.1v-6.5h0.3v6.5l2.3,0.1v-7h0.3v7l1.8,0.1v-8.8h0.3l0,8.9l1.8,0.1V57h0.3
		v7.3l1.1,0.1v-5.7h2.4v5.8l2.4,0.1v-6.3h2.4v6.5l15.8,0.9v-0.3h0.3v0.3l1.1,0.1V63h0.3v2.9l2.3,0.1v-3.5h0.3V66l1.8,0.1v-5.4h0.3
		V63l0,3.2l1.8,0.1v-1.6h0.3v1.6l2.5,0.1v-2.5h0.1l0-6.8l0,0l0-3.5l0,0l0-0.6l-0.2,0l-0.1-8.1l0,0l0-2.5l0.3,0l0,2.5l0.4,0v-3.1
		l0.2,0l0,3.1l0.4,0l0-2l0.3,0l0,2l0.3,0l0-3.4h0.2l0,3.5l0.1,0l0,1.4v2.9l0.2,3h0l0,0.2l0,0.6h0l0,4.2l0.1,0l0,1.9v4.2l0,0.7h0.1
		v2.6l6.4,0.4l0-5.4l0,0l0-2.4l0.3,0l0,2.4l1.1,0l0-2l0.3,0l0,2l0.5,0l0-3.4l0.3,0l0,4.8l-0.3,0l0,4.2l5.2,0.3v-1.2h0.4l0-0.4h0
		l0-1.8l-0.2,0L326.1,52l0,0l0-3.6l0,0l0-0.6l-0.2,0l-0.1-8.3l0,0l0-2.5l0.3,0l0,2.5l0.4,0v-3.2l0.2,0l0,3.2l0.4,0l0-2l0.3,0l0,2
		l0.3,0l0-3.5l0.2,0l0,3.6l0.1,0l0,1.4v3l0.2,3.1h0l0,0.2l0,0.6h0l0,4.3l0.1,0l0,2v4.3l0.2,5h0l0,4.2l1.7,0.1l2.2-2.5V65l0,0l0-2.6
		h0l0-1.7l-0.2,0L332.2,49l0,0l0-3.5h0l0-0.6l-0.2,0l-0.1-8.1h0l0-2.5l0.3,0l0,2.5l0.4,0v-3.1l0.2,0l0,3.1l0.4,0l0-2l0.3,0l0,2
		l0.3,0l0-3.4l0.2,0l0,3.5l0.1,0l0,1.4V41l0.2,3h0v0.2l0,0.6h0l0,4.2l0.1,0l0,1.9v4.2l0.2,4.9h0l0,4.7l0.1,0l2.4,2.7v-3.8h0.4l0-1.5
		l0,0l0-2.4l0.3,0l0,2.4l1.1,0l0-2l0.3,0l0,2l0.5,0l0-3.4l0.3,0l0,4.8l-0.3,0l0,4.8l1.4,0.1l4.6-5.2l0-0.4l-0.3-0.6l0.2-0.1l0.1,0.2
		l-0.1-10.3l0,0l0-3.5l0,0l0-0.6l-0.2,0l-0.1-8.1h0l0-2.5l0.3,0l0,2.5l0.4,0v-3.1l0.2,0l0,3.1l0.4,0l0-2l0.3,0l0,2l0.3,0l0-3.4h0.2
		l0,3.5l0.1,0l0,1.4V44l0.2,3h0l0,0.2l0,0.6h0l0,4.2l0.1,0l0,1.9v4.2l0.1,2.5l2.2-2.5l0-11.6l0,0l0-3.6h0l0-0.6l-0.2,0l0-8.3h0
		l0-2.5l0.3,0l0,2.5l0.4,0l0-3.2l0.2,0l0,3.2l0.4,0l0-2l0.3,0l0,2l0.3,0l0-3.5h0.2l0,3.5l0.1,0l0,1.4l0,3l0.1,3.1h0v0.2l0,0.6h0
		l0,4.2l0.1,0l-0.1,2l0,4.3l0.1,5l0,0l0,5l0.1,0l-0.1,2l0,4.3l0,0.2l0.9,1c0.7,0.1,1.2,0.1,1.4,0.2c1.6,0.3,1.8,0.6,1.8,0.6v0.5
		l0.5,0l11.5-12.9l0-11.8l0,0L368.8,43.2L368.8,43.2"/>
	<path id="path279" class="st0" d="M225.7,147.1h31c0.8,0,1.4,0.3,1.4,0.7v3.2c0,0.3-0.4,0.6-1,0.7c0.5,0.1,0.8,0.4,0.8,0.7v3.2
		c0,0.4-0.6,0.7-1.4,0.7h0.1c0.8,0,1.4,0.3,1.4,0.7v3.2c0,0.2-0.2,0.4-0.5,0.6c0.3,0.1,0.5,0.3,0.5,0.6v3.2c0,0.2-0.2,0.4-0.4,0.5
		c0.3,0.1,0.5,0.3,0.5,0.5v3.2c0,0.4-0.6,0.7-1.4,0.7c0.8,0,1.4,0.3,1.4,0.7v3.2c0,0.4-0.6,0.7-1.4,0.7h-31c-0.8,0-1.4-0.3-1.4-0.7
		v-3.2c0-0.4,0.6-0.7,1.4-0.7c-0.8,0-1.4-0.3-1.4-0.7v-3.2c0-0.2,0.2-0.4,0.4-0.5c-0.3-0.1-0.5-0.3-0.5-0.5v-3.2
		c0-0.2,0.2-0.4,0.5-0.6c-0.3-0.1-0.5-0.3-0.5-0.6V157c0-0.4,0.6-0.7,1.4-0.7h0c-0.8,0-1.4-0.3-1.4-0.7v-3.2c0-0.3,0.4-0.6,1-0.7
		c-0.5-0.1-0.8-0.4-0.8-0.7v-3.2C224.3,147.4,224.9,147.1,225.7,147.1"/>
</g>
</svg>
