<?xml version="1.0" encoding="utf-8"?>
<!-- Generator: Adobe Illustrator 22.1.0, SVG Export Plug-In . SVG Version: 6.00 Build 0)  -->
<svg version="1.1" id="Layer_1" xmlns="http://www.w3.org/2000/svg" xmlns:xlink="http://www.w3.org/1999/xlink" x="0px" y="0px"
	 viewBox="0 0 358.7 186.7" style="enable-background:new 0 0 358.7 186.7;" xml:space="preserve">
<g>
	<path id="path41" class="st0" d="M99.5,163.5h1.9V49h-1.9V163.5"/>
	<path id="path43" class="st1" d="M99.5,163.5h1.9V49h-1.9V163.5z"/>
	<path id="path45" class="st0" d="M94.7,162.8h1.9V48.4h-1.9V162.8"/>
	<path id="path47" class="st1" d="M94.7,162.8h1.9V48.4h-1.9V162.8z"/>
	<path id="path49" class="st0" d="M99.5,160.7h1.9V49h-1.9V160.7"/>
	<path id="path51" class="st1" d="M99.5,160.7h1.9V49h-1.9V160.7z"/>
	<path id="path53" class="st0" d="M81.7,159.4h1.9V44.9h-1.9V159.4"/>
	<path id="path55" class="st1" d="M81.7,159.4h1.9V44.9h-1.9V159.4z"/>
	<path id="path57" class="st0" d="M133.8,63.6v-2.4h-0.5v2.4H133.8z M134.1,61.2v2.4h0.4v-2.4H134.1z M134.2,77.6v-1.9h-0.5v1.9
		H134.2z M134.6,89.8v3.7h-0.3v-3.7h-0.9v2.9h-0.3v-2.9h-0.4v5.1h-0.3v-7.2h0.3v-7.2h-0.1v-7.2h0.2v-9.6h0.2v-2.4h-0.3v-6.2h1.9v5.9
		h0.1V68h0v7.7h-0.3v1.9h0.2L134.6,89.8L134.6,89.8L134.6,89.8z M132.9,77.6h0.5v-1.9h-0.5V77.6"/>
	<path id="path59" class="st1" d="M133.8,63.6v-2.4h-0.5v2.4H133.8z M134.1,61.2v2.4h0.4v-2.4H134.1z M134.2,77.6v-1.9h-0.5v1.9
		H134.2z M134.6,89.8v3.7h-0.3v-3.7h-0.9v2.9h-0.3v-2.9h-0.4v5.1h-0.3v-7.2h0.3v-7.2h-0.1v-7.2h0.2v-9.6h0.2v-2.4h-0.3v-6.2h1.9v5.9
		h0.1V68h0v7.7h-0.3v1.9h0.2L134.6,89.8L134.6,89.8L134.6,89.8z M132.9,77.6h0.5v-1.9h-0.5V77.6z"/>
	<path id="path61" class="st0" d="M139.2,61.6v-2.4h-0.5v2.4H139.2z M139.5,59.2v2.4h0.4v-2.4H139.5z M139.6,75.6v-1.9h-0.5v1.9
		H139.6z M140,87.8v3.7h-0.3v-3.7h-0.9v2.9h-0.3v-2.9h-0.4v5.1h-0.3v-7.2h0.3v-7.2H138v-7.2h0.2v-9.6h0.2v-2.4h-0.3v-6.2h1.9v5.9
		h0.1V66h0v7.7h-0.3v1.9h0.2L140,87.8L140,87.8L140,87.8z M138.3,75.6h0.5v-1.9h-0.5V75.6"/>
	<path id="path63" class="st1" d="M139.2,61.6v-2.4h-0.5v2.4H139.2z M139.5,59.2v2.4h0.4v-2.4H139.5z M139.6,75.6v-1.9h-0.5v1.9
		H139.6z M140,87.8v3.7h-0.3v-3.7h-0.9v2.9h-0.3v-2.9h-0.4v5.1h-0.3v-7.2h0.3v-7.2H138v-7.2h0.2v-9.6h0.2v-2.4h-0.3v-6.2h1.9v5.9
		h0.1V66h0v7.7h-0.3v1.9h0.2L140,87.8L140,87.8L140,87.8z M138.3,75.6h0.5v-1.9h-0.5V75.6z"/>
	<path id="path65" class="st0" d="M144.1,64.5v-2.4h-0.5v2.4H144.1z M144.3,62.1v2.4h0.4v-2.4H144.3z M144.5,78.5v-1.9h-0.5v1.9
		H144.5z M144.9,90.7v3.7h-0.3v-3.7h-0.9v2.9h-0.3v-2.9H143v5.1h-0.3v-7.2h0.3v-7.2h-0.1v-7.2h0.2v-9.6h0.2v-2.4h-0.3v-6.2h1.9v5.9
		h0.1v7.2h0v7.7h-0.3v1.9h0.2L144.9,90.7L144.9,90.7L144.9,90.7z M143.1,78.5h0.5v-1.9h-0.5V78.5"/>
	<path id="path67" class="st1" d="M144.1,64.5v-2.4h-0.5v2.4H144.1z M144.3,62.1v2.4h0.4v-2.4H144.3z M144.5,78.5v-1.9h-0.5v1.9
		H144.5z M144.9,90.7v3.7h-0.3v-3.7h-0.9v2.9h-0.3v-2.9H143v5.1h-0.3v-7.2h0.3v-7.2h-0.1v-7.2h0.2v-9.6h0.2v-2.4h-0.3v-6.2h1.9v5.9
		h0.1v7.2h0v7.7h-0.3v1.9h0.2L144.9,90.7L144.9,90.7L144.9,90.7z M143.1,78.5h0.5v-1.9h-0.5V78.5z"/>
	<path id="path69" class="st0" d="M148.1,62.7v-2.4h-0.5v2.4H148.1z M148.4,60.3v2.4h0.4v-2.4H148.4z M148.5,76.8v-1.9H148v1.9
		H148.5z M148.9,88.9v3.7h-0.3v-3.7h-0.9v2.9h-0.3v-2.9H147V94h-0.3v-7.2h0.3v-7.2h-0.1v-7.2h0.2v-9.6h0.2v-2.4H147v-6.2h1.9v5.9
		h0.1v7.2h0v7.7h-0.3v1.9h0.2L148.9,88.9L148.9,88.9L148.9,88.9z M147.2,76.8h0.5v-1.9h-0.5V76.8"/>
	<path id="path71" class="st1" d="M148.1,62.7v-2.4h-0.5v2.4H148.1z M148.4,60.3v2.4h0.4v-2.4H148.4z M148.5,76.8v-1.9H148v1.9
		H148.5z M148.9,88.9v3.7h-0.3v-3.7h-0.9v2.9h-0.3v-2.9H147V94h-0.3v-7.2h0.3v-7.2h-0.1v-7.2h0.2v-9.6h0.2v-2.4H147v-6.2h1.9v5.9
		h0.1v7.2h0v7.7h-0.3v1.9h0.2L148.9,88.9L148.9,88.9L148.9,88.9z M147.2,76.8h0.5v-1.9h-0.5V76.8z"/>
	<path id="path73" class="st0" d="M114.9,64.8v-2.4h-0.5v2.4H114.9z M115.2,62.3v2.4h0.4v-2.4H115.2z M115.3,78.8v-1.9h-0.5v1.9
		H115.3z M115.7,90.9v3.7h-0.3v-3.7h-0.9v2.9h-0.3v-2.9h-0.4v5.1h-0.3v-7.2h0.3v-7.2h-0.1v-7.2h0.2v-9.6h0.2v-2.4h-0.3v-6.2h1.9V62
		h0.1v7.2h0v7.7h-0.3v1.9h0.2L115.7,90.9L115.7,90.9L115.7,90.9z M114,78.8h0.5v-1.9H114V78.8"/>
	<path id="path75" class="st1" d="M114.9,64.8v-2.4h-0.5v2.4H114.9z M115.2,62.3v2.4h0.4v-2.4H115.2z M115.3,78.8v-1.9h-0.5v1.9
		H115.3z M115.7,90.9v3.7h-0.3v-3.7h-0.9v2.9h-0.3v-2.9h-0.4v5.1h-0.3v-7.2h0.3v-7.2h-0.1v-7.2h0.2v-9.6h0.2v-2.4h-0.3v-6.2h1.9V62
		h0.1v7.2h0v7.7h-0.3v1.9h0.2L115.7,90.9L115.7,90.9L115.7,90.9z M114,78.8h0.5v-1.9H114V78.8z"/>
	<path id="path77" class="st0" d="M120.3,65.9v-2.4h-0.5v2.4H120.3z M120.6,63.5v2.4h0.4v-2.4H120.6z M120.7,80v-1.9h-0.5V80H120.7z
		 M121.1,92.1v3.7h-0.3v-3.7h-0.9V95h-0.3v-2.9h-0.4v5.1H119V90h0.3v-7.2h-0.1v-7.2h0.2v-9.6h0.2v-2.4h-0.3v-6.2h1.9v5.9h0.1v7.2h0
		v7.7H121V80h0.2L121.1,92.1L121.1,92.1L121.1,92.1z M119.4,80h0.5v-1.9h-0.5V80"/>
	<path id="path79" class="st1" d="M120.3,65.9v-2.4h-0.5v2.4H120.3z M120.6,63.5v2.4h0.4v-2.4H120.6z M120.7,80v-1.9h-0.5V80H120.7z
		 M121.1,92.1v3.7h-0.3v-3.7h-0.9V95h-0.3v-2.9h-0.4v5.1H119V90h0.3v-7.2h-0.1v-7.2h0.2v-9.6h0.2v-2.4h-0.3v-6.2h1.9v5.9h0.1v7.2h0
		v7.7H121V80h0.2L121.1,92.1L121.1,92.1L121.1,92.1z M119.4,80h0.5v-1.9h-0.5V80z"/>
	<path id="path81" class="st0" d="M120.5,50.4v2.4H120v-2.4H120.5z M120.8,52.8v-2.4h0.4v2.4H120.8z M120.9,36.4v1.9h-0.5v-1.9
		H120.9z M121.3,24.2v-3.7h-0.3v3.7h-0.9v-3h-0.3v3h-0.4v-5.1h-0.3v7.2h0.3v7.2h-0.1v7.2h0.2v9.6h0.2v2.4h-0.3v6.2h1.9v-5.9h0.1V46
		h0v-7.7h-0.3v-1.9h0.2L121.3,24.2L121.3,24.2L121.3,24.2z M119.6,36.4h0.5v1.9h-0.5V36.4"/>
	<path id="path83" class="st1" d="M120.5,50.4v2.4H120v-2.4H120.5z M120.8,52.8v-2.4h0.4v2.4H120.8z M120.9,36.4v1.9h-0.5v-1.9
		H120.9z M121.3,24.2v-3.7h-0.3v3.7h-0.9v-3h-0.3v3h-0.4v-5.1h-0.3v7.2h0.3v7.2h-0.1v7.2h0.2v9.6h0.2v2.4h-0.3v6.2h1.9v-5.9h0.1V46
		h0v-7.7h-0.3v-1.9h0.2L121.3,24.2L121.3,24.2L121.3,24.2z M119.6,36.4h0.5v1.9h-0.5V36.4z"/>
	<path id="path85" class="st0" d="M103,79.1v2.4h-0.5v-2.4H103z M103.2,81.6v-2.4h0.4v2.4H103.2z M103.4,65.1V67h-0.5v-1.9H103.4z
		 M103.8,53v-3.7h-0.3V53h-0.9V50h-0.3V53h-0.4v-5.1h-0.3v7.2h0.3v7.2h-0.1v7.2h0.2v9.6h0.2v2.4h-0.3v6.2h1.9v-5.9h0.1v-7.2h0V67
		h-0.3v-1.9h0.2L103.8,53L103.8,53L103.8,53z M102,65.1h0.5V67H102V65.1"/>
	<path id="path87" class="st1" d="M103,79.1v2.4h-0.5v-2.4H103z M103.2,81.6v-2.4h0.4v2.4H103.2z M103.4,65.1V67h-0.5v-1.9H103.4z
		 M103.8,53v-3.7h-0.3V53h-0.9V50h-0.3V53h-0.4v-5.1h-0.3v7.2h0.3v7.2h-0.1v7.2h0.2v9.6h0.2v2.4h-0.3v6.2h1.9v-5.9h0.1v-7.2h0V67
		h-0.3v-1.9h0.2L103.8,53L103.8,53L103.8,53z M102,65.1h0.5V67H102V65.1z"/>
	<path id="path89" class="st0" d="M87.9,46.2v2.4h-0.5v-2.4H87.9z M88.2,48.6v-2.4h0.4v2.4H88.2z M88.3,32.1V34h-0.5v-1.9H88.3z
		 M88.7,20v-3.7h-0.3V20h-0.9v-2.9h-0.3V20h-0.4v-5.1h-0.3v7.2h0.3v7.2h-0.1v7.2h0.2v9.6h0.2v2.4h-0.3v6.2h1.9V49h0.1v-7.2h0V34
		h-0.3v-1.9h0.2L88.7,20L88.7,20L88.7,20z M87,32.1h0.5V34H87V32.1"/>
	<path id="path91" class="st1" d="M87.9,46.2v2.4h-0.5v-2.4H87.9z M88.2,48.6v-2.4h0.4v2.4H88.2z M88.3,32.1V34h-0.5v-1.9H88.3z
		 M88.7,20v-3.7h-0.3V20h-0.9v-2.9h-0.3V20h-0.4v-5.1h-0.3v7.2h0.3v7.2h-0.1v7.2h0.2v9.6h0.2v2.4h-0.3v6.2h1.9V49h0.1v-7.2h0V34
		h-0.3v-1.9h0.2L88.7,20L88.7,20L88.7,20z M87,32.1h0.5V34H87V32.1z"/>
	<path id="path93" class="st0" d="M100.9,47.9v2.4h-0.5v-2.4H100.9z M101.1,50.3v-2.4h0.4v2.4H101.1z M101.3,33.9v1.9h-0.5v-1.9
		H101.3z M101.7,21.7v-3.7h-0.3v3.7h-0.9v-2.9h-0.3v2.9h-0.4v-5.1h-0.3v7.2h0.2v7.2h-0.1v7.2h0.2v9.6h0.2v2.4h-0.3v6.2h1.9v-5.9h0.1
		v-7.2h0v-7.7h-0.3v-1.9h0.2L101.7,21.7L101.7,21.7L101.7,21.7z M99.9,33.9h0.5v1.9h-0.5V33.9"/>
	<path id="path95" class="st1" d="M100.9,47.9v2.4h-0.5v-2.4H100.9z M101.1,50.3v-2.4h0.4v2.4H101.1z M101.3,33.9v1.9h-0.5v-1.9
		H101.3z M101.7,21.7v-3.7h-0.3v3.7h-0.9v-2.9h-0.3v2.9h-0.4v-5.1h-0.3v7.2h0.2v7.2h-0.1v7.2h0.2v9.6h0.2v2.4h-0.3v6.2h1.9v-5.9h0.1
		v-7.2h0v-7.7h-0.3v-1.9h0.2L101.7,21.7L101.7,21.7L101.7,21.7z M99.9,33.9h0.5v1.9h-0.5V33.9z"/>
	<path id="path97" class="st0" d="M108.5,55.3v2.4H108v-2.4H108.5z M108.8,57.8v-2.4h0.4v2.4H108.8z M108.9,41.3v1.9h-0.5v-1.9
		H108.9z M109.3,29.2v-3.7H109v3.7h-0.9v-2.9h-0.3v2.9h-0.4v-5.1h-0.3v7.2h0.3v7.2h-0.1v7.2h0.2v9.6h0.2v2.4h-0.3V64h1.9v-5.9h0.1
		v-7.2h0v-7.7h-0.3v-1.9h0.2L109.3,29.2L109.3,29.2L109.3,29.2z M107.6,41.3h0.5v1.9h-0.5V41.3"/>
	<path id="path99" class="st1" d="M108.5,55.3v2.4H108v-2.4H108.5z M108.8,57.8v-2.4h0.4v2.4H108.8z M108.9,41.3v1.9h-0.5v-1.9
		H108.9z M109.3,29.2v-3.7H109v3.7h-0.9v-2.9h-0.3v2.9h-0.4v-5.1h-0.3v7.2h0.3v7.2h-0.1v7.2h0.2v9.6h0.2v2.4h-0.3V64h1.9v-5.9h0.1
		v-7.2h0v-7.7h-0.3v-1.9h0.2L109.3,29.2L109.3,29.2L109.3,29.2z M107.6,41.3h0.5v1.9h-0.5V41.3z"/>
	<path id="path101" class="st0" d="M96,52.1v2.4h-0.5v-2.4H96z M96.3,54.5v-2.4h0.4v2.4H96.3z M96.4,38.1V40h-0.5v-1.9H96.4z
		 M96.8,25.9v-3.7h-0.3v3.7h-0.9V23h-0.3v2.9h-0.4v-5.1h-0.3v7.2h0.3v7.2h-0.1v7.2H95v9.6h0.2v2.4h-0.3v6.2h1.9v-5.9H97v-7.2h0V40
		h-0.3v-1.9h0.2L96.8,25.9L96.8,25.9L96.8,25.9z M95.1,38.1h0.5V40h-0.5V38.1"/>
	<path id="path103" class="st1" d="M96,52.1v2.4h-0.5v-2.4H96z M96.3,54.5v-2.4h0.4v2.4H96.3z M96.4,38.1V40h-0.5v-1.9H96.4z
		 M96.8,25.9v-3.7h-0.3v3.7h-0.9V23h-0.3v2.9h-0.4v-5.1h-0.3v7.2h0.3v7.2h-0.1v7.2H95v9.6h0.2v2.4h-0.3v6.2h1.9v-5.9H97v-7.2h0V40
		h-0.3v-1.9h0.2L96.8,25.9L96.8,25.9L96.8,25.9z M95.1,38.1h0.5V40h-0.5V38.1z"/>
	<path id="path105" class="st0" d="M105,52.9v2.4h-0.5v-2.4H105z M105.3,55.3v-2.4h0.4v2.4H105.3z M105.4,38.8v1.9h-0.5v-1.9H105.4z
		 M105.8,26.7V23h-0.3v3.7h-0.9v-2.9h-0.3v2.9H104v-5.1h-0.3v7.2h0.3V36h-0.1v7.2h0.2v9.6h0.2v2.4h-0.3v6.2h1.9v-5.9h0.1v-7.2h0
		v-7.7h-0.3v-1.9h0.2L105.8,26.7L105.8,26.7L105.8,26.7z M104.1,38.8h0.5v1.9h-0.5V38.8"/>
	<path id="path107" class="st1" d="M105,52.9v2.4h-0.5v-2.4H105z M105.3,55.3v-2.4h0.4v2.4H105.3z M105.4,38.8v1.9h-0.5v-1.9H105.4z
		 M105.8,26.7V23h-0.3v3.7h-0.9v-2.9h-0.3v2.9H104v-5.1h-0.3v7.2h0.3V36h-0.1v7.2h0.2v9.6h0.2v2.4h-0.3v6.2h1.9v-5.9h0.1v-7.2h0
		v-7.7h-0.3v-1.9h0.2L105.8,26.7L105.8,26.7L105.8,26.7z M104.1,38.8h0.5v1.9h-0.5V38.8z"/>
	<path id="path109" class="st0" d="M90.5,53.1v2.4h-0.5v-2.4H90.5z M90.7,55.5v-2.4h0.4v2.4H90.7z M90.9,39.1V41h-0.5v-1.9H90.9z
		 M91.3,26.9v-3.7H91v3.7h-0.9V24h-0.3v2.9h-0.4v-5.1h-0.3V29h0.2v7.2h-0.1v7.2h0.2v9.6h0.2v2.4h-0.3v6.2h1.9v-5.9h0.1v-7.2h0V41
		h-0.3v-1.9h0.2L91.3,26.9L91.3,26.9L91.3,26.9z M89.5,39.1h0.5V41h-0.5V39.1"/>
	<path id="path111" class="st1" d="M90.5,53.1v2.4h-0.5v-2.4H90.5z M90.7,55.5v-2.4h0.4v2.4H90.7z M90.9,39.1V41h-0.5v-1.9H90.9z
		 M91.3,26.9v-3.7H91v3.7h-0.9V24h-0.3v2.9h-0.4v-5.1h-0.3V29h0.2v7.2h-0.1v7.2h0.2v9.6h0.2v2.4h-0.3v6.2h1.9v-5.9h0.1v-7.2h0V41
		h-0.3v-1.9h0.2L91.3,26.9L91.3,26.9L91.3,26.9z M89.5,39.1h0.5V41h-0.5V39.1z"/>
	<path id="path113" class="st0" d="M75.6,51.8l-0.4,2.4l-0.5-0.1l0.4-2.4L75.6,51.8z M75.5,54.2l0.4-2.4l0.4,0.1l-0.4,2.4L75.5,54.2
		z M78.1,38l-0.5-0.1l-0.3,1.9l0.5,0.1C77.8,39.8,78.1,38,78.1,38z M80.3,26.1l0.5-3.6l-0.3,0L80,26l-0.9-0.2l0.4-2.9l-0.3,0
		l-0.4,2.9l-0.4-0.1l0.8-5.1l-0.3,0l-1.1,7.1l0.2,0L77,34.9l-0.1,0l-1.1,7.1l0.2,0l-1.4,9.5l0.2,0L74.5,54L74.1,54l-0.9,6.2l1.9,0.3
		l0.9-5.8l0.1,0l1.1-7.1l0,0l1.1-7.6l-0.2,0l0.3-1.9l0.2,0L80.3,26.1L80.3,26.1L80.3,26.1z M76.7,37.8l0.5,0.1L77,39.7l-0.5-0.1
		L76.7,37.8"/>
	<path id="path115" class="st1" d="M75.6,51.8l-0.4,2.4l-0.5-0.1l0.4-2.4L75.6,51.8z M75.5,54.2l0.4-2.4l0.4,0.1l-0.4,2.4L75.5,54.2
		z M78.1,38l-0.5-0.1l-0.3,1.9l0.5,0.1C77.8,39.8,78.1,38,78.1,38z M80.3,26.1l0.5-3.6l-0.3,0L80,26l-0.9-0.2l0.4-2.9l-0.3,0
		l-0.4,2.9l-0.4-0.1l0.8-5.1l-0.3,0l-1.1,7.1l0.2,0L77,34.9l-0.1,0l-1.1,7.1l0.2,0l-1.4,9.5l0.2,0L74.5,54L74.1,54l-0.9,6.2l1.9,0.3
		l0.9-5.8l0.1,0l1.1-7.1l0,0l1.1-7.6l-0.2,0l0.3-1.9l0.2,0L80.3,26.1L80.3,26.1L80.3,26.1z M76.7,37.8l0.5,0.1L77,39.7l-0.5-0.1
		L76.7,37.8z"/>
	<path id="path117" class="st0" d="M81.7,159.4h1.9V44.9h-1.9V159.4"/>
	<path id="path119" class="st1" d="M81.7,159.4h1.9V44.9h-1.9V159.4z"/>
	<path id="path121" class="st0" d="M11.8,71.3l-1.4,0l-1.7,85.2l1.4,0L11.8,71.3"/>
	<path id="path123" class="st1" d="M11.8,71.3l-1.4,0l-1.7,85.2l1.4,0L11.8,71.3z"/>
	<path id="path125" class="st0" d="M11.7,65.8l-0.1,2.4l-0.5,0l0.1-2.4L11.7,65.8z M11.9,68.2l0.1-2.4l0.4,0l-0.1,2.4
		C12.3,68.2,11.9,68.2,11.9,68.2z M12.6,51.8l-0.1,1.9l-0.5,0l0.1-1.9L12.6,51.8z M13.3,39.7l0.1-3.7l-0.3,0l-0.1,3.7l-0.9,0
		l0.1-2.9l-0.3,0l-0.1,2.9l-0.4,0l0.2-5.1l-0.3,0l-0.2,7.2l0.3,0l-0.2,7.2l-0.1,0l-0.2,7.2l0.2,0l-0.3,9.6l0.2,0l-0.1,2.4l-0.3,0
		l-0.2,6.2l1.9,0.1l0.2-5.9l0.1,0l0.2-7.2l0,0l0.2-7.7l-0.3,0l0.1-1.9l0.2,0L13.3,39.7L13.3,39.7L13.3,39.7z M11.2,51.7l0.5,0
		l-0.1,1.9l-0.5,0L11.2,51.7"/>
	<path id="path127" class="st1" d="M11.7,65.8l-0.1,2.4l-0.5,0l0.1-2.4L11.7,65.8z M11.9,68.2l0.1-2.4l0.4,0l-0.1,2.4
		C12.3,68.2,11.9,68.2,11.9,68.2z M12.6,51.8l-0.1,1.9l-0.5,0l0.1-1.9L12.6,51.8z M13.3,39.7l0.1-3.7l-0.3,0l-0.1,3.7l-0.9,0
		l0.1-2.9l-0.3,0l-0.1,2.9l-0.4,0l0.2-5.1l-0.3,0l-0.2,7.2l0.3,0l-0.2,7.2l-0.1,0l-0.2,7.2l0.2,0l-0.3,9.6l0.2,0l-0.1,2.4l-0.3,0
		l-0.2,6.2l1.9,0.1l0.2-5.9l0.1,0l0.2-7.2l0,0l0.2-7.7l-0.3,0l0.1-1.9l0.2,0L13.3,39.7L13.3,39.7L13.3,39.7z M11.2,51.7l0.5,0
		l-0.1,1.9l-0.5,0L11.2,51.7z"/>
	<path id="path129" class="st0" d="M14.4,68.9l-0.1,2.4l-0.5,0l0.1-2.4L14.4,68.9z M14.6,71.4l0.1-2.4l0.4,0L15,71.4L14.6,71.4z
		 M15.3,54.9l-0.1,1.9l-0.5,0l0.1-1.9C14.7,54.9,15.3,54.9,15.3,54.9z M16,42.8l0.1-3.7l-0.3,0l-0.1,3.7l-0.9,0l0.1-2.9l-0.3,0
		l-0.1,2.9l-0.4,0l0.2-5.1l-0.3,0l-0.2,7.2l0.3,0l-0.2,7.2l-0.1,0l-0.2,7.2l0.2,0l-0.3,9.6l0.2,0l-0.1,2.4l-0.3,0L13,77.5l1.9,0.1
		l0.2-5.9l0.1,0l0.2-7.2l0,0l0.2-7.7l-0.3,0l0.1-1.9l0.2,0L16,42.8L16,42.8L16,42.8z M13.9,54.9l0.5,0l-0.1,1.9l-0.5,0L13.9,54.9"/>
	<path id="path131" class="st1" d="M14.4,68.9l-0.1,2.4l-0.5,0l0.1-2.4L14.4,68.9z M14.6,71.4l0.1-2.4l0.4,0L15,71.4L14.6,71.4z
		 M15.3,54.9l-0.1,1.9l-0.5,0l0.1-1.9C14.7,54.9,15.3,54.9,15.3,54.9z M16,42.8l0.1-3.7l-0.3,0l-0.1,3.7l-0.9,0l0.1-2.9l-0.3,0
		l-0.1,2.9l-0.4,0l0.2-5.1l-0.3,0l-0.2,7.2l0.3,0l-0.2,7.2l-0.1,0l-0.2,7.2l0.2,0l-0.3,9.6l0.2,0l-0.1,2.4l-0.3,0L13,77.5l1.9,0.1
		l0.2-5.9l0.1,0l0.2-7.2l0,0l0.2-7.7l-0.3,0l0.1-1.9l0.2,0L16,42.8L16,42.8L16,42.8z M13.9,54.9l0.5,0l-0.1,1.9l-0.5,0L13.9,54.9
		L13.9,54.9z"/>
	<path id="path133" class="st0" d="M18.1,62.9l-0.1,2.4l-0.5,0l0.1-2.4L18.1,62.9z M18.3,65.4l0.1-2.4l0.4,0l-0.1,2.4L18.3,65.4z
		 M19,48.9l-0.1,1.9l-0.5,0l0.1-1.9L19,48.9z M19.8,36.8l0.1-3.7l-0.3,0l-0.1,3.7l-0.9,0l0.1-2.9l-0.3,0l-0.1,2.9l-0.4,0l0.2-5.1
		l-0.3,0l-0.2,7.2l0.3,0l-0.2,7.2l-0.1,0l-0.2,7.2l0.2,0l-0.3,9.6l0.2,0l-0.1,2.4l-0.3,0l-0.2,6.2l1.9,0.1l0.2-5.9l0.1,0l0.2-7.2h0
		l0.2-7.7l-0.3,0l0.1-1.9l0.2,0L19.8,36.8L19.8,36.8L19.8,36.8z M17.6,48.9l0.5,0l-0.1,1.9l-0.5,0L17.6,48.9"/>
	<path id="path135" class="st1" d="M18.1,62.9l-0.1,2.4l-0.5,0l0.1-2.4L18.1,62.9z M18.3,65.4l0.1-2.4l0.4,0l-0.1,2.4L18.3,65.4z
		 M19,48.9l-0.1,1.9l-0.5,0l0.1-1.9L19,48.9z M19.8,36.8l0.1-3.7l-0.3,0l-0.1,3.7l-0.9,0l0.1-2.9l-0.3,0l-0.1,2.9l-0.4,0l0.2-5.1
		l-0.3,0l-0.2,7.2l0.3,0l-0.2,7.2l-0.1,0l-0.2,7.2l0.2,0l-0.3,9.6l0.2,0l-0.1,2.4l-0.3,0l-0.2,6.2l1.9,0.1l0.2-5.9l0.1,0l0.2-7.2h0
		l0.2-7.7l-0.3,0l0.1-1.9l0.2,0L19.8,36.8L19.8,36.8L19.8,36.8z M17.6,48.9l0.5,0l-0.1,1.9l-0.5,0C17.6,50.8,17.6,48.9,17.6,48.9z"
		/>
	<path id="path137" class="st0" d="M27.3,61.4l-0.1,2.4l-0.5,0l0.1-2.4L27.3,61.4z M27.5,63.9l0.1-2.4l0.4,0l-0.1,2.4L27.5,63.9z
		 M28.1,47.4l-0.1,1.9l-0.5,0l0.1-1.9C27.6,47.4,28.1,47.4,28.1,47.4z M28.9,35.3l0.1-3.7l-0.3,0l-0.1,3.7l-0.9,0l0.1-2.9l-0.3,0
		l-0.1,2.9l-0.4,0l0.2-5.1l-0.3,0l-0.2,7.2l0.2,0l-0.2,7.2l-0.1,0l-0.2,7.2l0.2,0l-0.3,9.6l0.2,0l-0.1,2.4l-0.3,0l-0.2,6.2l1.9,0.1
		l0.2-5.9l0.1,0l0.2-7.2h0l0.2-7.7l-0.3,0l0.1-1.9l0.2,0L28.9,35.3L28.9,35.3L28.9,35.3z M26.8,47.4l0.5,0l-0.1,1.9l-0.5,0
		L26.8,47.4"/>
	<path id="path139" class="st1" d="M27.3,61.4l-0.1,2.4l-0.5,0l0.1-2.4L27.3,61.4z M27.5,63.9l0.1-2.4l0.4,0l-0.1,2.4L27.5,63.9z
		 M28.1,47.4l-0.1,1.9l-0.5,0l0.1-1.9C27.6,47.4,28.1,47.4,28.1,47.4z M28.9,35.3l0.1-3.7l-0.3,0l-0.1,3.7l-0.9,0l0.1-2.9l-0.3,0
		l-0.1,2.9l-0.4,0l0.2-5.1l-0.3,0l-0.2,7.2l0.2,0l-0.2,7.2l-0.1,0l-0.2,7.2l0.2,0l-0.3,9.6l0.2,0l-0.1,2.4l-0.3,0l-0.2,6.2l1.9,0.1
		l0.2-5.9l0.1,0l0.2-7.2h0l0.2-7.7l-0.3,0l0.1-1.9l0.2,0L28.9,35.3L28.9,35.3L28.9,35.3z M26.8,47.4l0.5,0l-0.1,1.9l-0.5,0
		L26.8,47.4z"/>
	<path id="path141" class="st0" d="M31.1,55.9L31,58.4l-0.5,0l0.1-2.4L31.1,55.9z M31.3,58.4l0.1-2.4l0.4,0l-0.1,2.4
		C31.7,58.4,31.3,58.4,31.3,58.4z M31.9,41.9l-0.1,1.9l-0.5,0l0.1-1.9C31.4,41.9,31.9,41.9,31.9,41.9z M32.7,29.8l0.1-3.7l-0.3,0
		l-0.1,3.7l-0.9,0l0.1-2.9l-0.3,0l-0.1,2.9l-0.4,0l0.2-5.1l-0.3,0l-0.2,7.2l0.3,0l-0.2,7.2l-0.1,0l-0.2,7.2l0.2,0l-0.3,9.6l0.2,0
		l-0.1,2.4l-0.3,0l-0.2,6.2l1.9,0.1l0.2-5.9l0.1,0l0.2-7.2h0l0.2-7.7l-0.3,0l0.1-1.9l0.2,0L32.7,29.8L32.7,29.8L32.7,29.8z
		 M30.6,41.9l0.5,0L31,43.8l-0.5,0L30.6,41.9"/>
	<path id="path143" class="st1" d="M31.1,55.9L31,58.4l-0.5,0l0.1-2.4L31.1,55.9z M31.3,58.4l0.1-2.4l0.4,0l-0.1,2.4
		C31.7,58.4,31.3,58.4,31.3,58.4z M31.9,41.9l-0.1,1.9l-0.5,0l0.1-1.9C31.4,41.9,31.9,41.9,31.9,41.9z M32.7,29.8l0.1-3.7l-0.3,0
		l-0.1,3.7l-0.9,0l0.1-2.9l-0.3,0l-0.1,2.9l-0.4,0l0.2-5.1l-0.3,0l-0.2,7.2l0.3,0l-0.2,7.2l-0.1,0l-0.2,7.2l0.2,0l-0.3,9.6l0.2,0
		l-0.1,2.4l-0.3,0l-0.2,6.2l1.9,0.1l0.2-5.9l0.1,0l0.2-7.2h0l0.2-7.7l-0.3,0l0.1-1.9l0.2,0L32.7,29.8L32.7,29.8L32.7,29.8z
		 M30.6,41.9l0.5,0L31,43.8l-0.5,0L30.6,41.9z"/>
	<path id="path145" class="st0" d="M34.6,58.4l-0.1,2.4l-0.5,0l0.1-2.4L34.6,58.4z M34.8,60.9l0.1-2.4l0.4,0l-0.1,2.4L34.8,60.9z
		 M35.5,44.4l-0.1,1.9l-0.5,0l0.1-1.9C34.9,44.4,35.5,44.4,35.5,44.4z M36.3,32.3l0.1-3.7l-0.3,0L36,32.3l-0.9,0l0.1-2.9l-0.3,0
		l-0.1,2.9l-0.4,0l0.2-5.1l-0.3,0L34,34.4l0.3,0l-0.2,7.2l-0.1,0l-0.2,7.2l0.2,0l-0.3,9.6l0.2,0l-0.1,2.4l-0.3,0l-0.2,6.2l1.9,0.1
		l0.2-5.9l0.1,0l0.2-7.2h0l0.2-7.7l-0.3,0l0.1-1.9l0.2,0L36.3,32.3L36.3,32.3L36.3,32.3z M34.1,44.4l0.5,0l-0.1,1.9l-0.5,0
		L34.1,44.4"/>
	<path id="path147" class="st1" d="M34.6,58.4l-0.1,2.4l-0.5,0l0.1-2.4L34.6,58.4z M34.8,60.9l0.1-2.4l0.4,0l-0.1,2.4L34.8,60.9z
		 M35.5,44.4l-0.1,1.9l-0.5,0l0.1-1.9C34.9,44.4,35.5,44.4,35.5,44.4z M36.3,32.3l0.1-3.7l-0.3,0L36,32.3l-0.9,0l0.1-2.9l-0.3,0
		l-0.1,2.9l-0.4,0l0.2-5.1l-0.3,0L34,34.4l0.3,0l-0.2,7.2l-0.1,0l-0.2,7.2l0.2,0l-0.3,9.6l0.2,0l-0.1,2.4l-0.3,0l-0.2,6.2l1.9,0.1
		l0.2-5.9l0.1,0l0.2-7.2h0l0.2-7.7l-0.3,0l0.1-1.9l0.2,0L36.3,32.3L36.3,32.3L36.3,32.3z M34.1,44.4l0.5,0l-0.1,1.9l-0.5,0
		L34.1,44.4z"/>
	<path id="path149" class="st0" d="M41.7,55l-0.1,2.4l-0.5,0l0.1-2.4L41.7,55z M41.9,57.4L42,55l0.4,0l-0.1,2.4
		C42.3,57.4,41.9,57.4,41.9,57.4z M42.5,41l-0.1,1.9l-0.5,0L42,41L42.5,41z M43.3,28.9l0.1-3.7l-0.3,0L43,28.9l-0.9,0l0.1-2.9
		l-0.3,0l-0.1,2.9l-0.4,0l0.2-5.1l-0.3,0l-0.2,7.2l0.3,0l-0.2,7.2l-0.1,0l-0.2,7.2l0.2,0L40.7,55l0.2,0l-0.1,2.4l-0.3,0l-0.2,6.2
		l1.9,0.1l0.2-5.9l0.1,0l0.2-7.2h0l0.2-7.7l-0.3,0l0.1-1.9l0.2,0L43.3,28.9L43.3,28.9L43.3,28.9z M41.2,41l0.5,0l-0.1,1.9l-0.5,0
		L41.2,41"/>
	<path id="path151" class="st1" d="M41.7,55l-0.1,2.4l-0.5,0l0.1-2.4L41.7,55z M41.9,57.4L42,55l0.4,0l-0.1,2.4
		C42.3,57.4,41.9,57.4,41.9,57.4z M42.5,41l-0.1,1.9l-0.5,0L42,41L42.5,41z M43.3,28.9l0.1-3.7l-0.3,0L43,28.9l-0.9,0l0.1-2.9
		l-0.3,0l-0.1,2.9l-0.4,0l0.2-5.1l-0.3,0l-0.2,7.2l0.3,0l-0.2,7.2l-0.1,0l-0.2,7.2l0.2,0L40.7,55l0.2,0l-0.1,2.4l-0.3,0l-0.2,6.2
		l1.9,0.1l0.2-5.9l0.1,0l0.2-7.2h0l0.2-7.7l-0.3,0l0.1-1.9l0.2,0L43.3,28.9L43.3,28.9L43.3,28.9z M41.2,41l0.5,0l-0.1,1.9l-0.5,0
		L41.2,41z"/>
	<path id="path153" class="st0" d="M48.2,50.9l-0.1,2.4l-0.5,0l0.1-2.4L48.2,50.9z M48.4,53.3l0.1-2.4l0.4,0l-0.1,2.4
		C48.8,53.3,48.4,53.3,48.4,53.3z M49,36.9L49,38.8l-0.5,0l0.1-1.9L49,36.9z M49.8,24.8l0.1-3.7l-0.3,0l-0.1,3.7l-0.9,0l0.1-2.9
		l-0.3,0l-0.1,2.9l-0.4,0l0.2-5.1l-0.3,0l-0.2,7.2l0.2,0L47.6,34l-0.1,0l-0.2,7.2l0.2,0l-0.3,9.6l0.2,0l-0.1,2.4l-0.3,0l-0.2,6.2
		l1.9,0.1l0.2-5.9l0.1,0l0.2-7.2h0l0.2-7.7l-0.3,0l0.1-1.9l0.2,0L49.8,24.8C49.9,24.8,49.8,24.8,49.8,24.8z M47.7,36.8l0.5,0
		l-0.1,1.9l-0.5,0L47.7,36.8"/>
	<path id="path155" class="st1" d="M48.2,50.9l-0.1,2.4l-0.5,0l0.1-2.4L48.2,50.9z M48.4,53.3l0.1-2.4l0.4,0l-0.1,2.4
		C48.8,53.3,48.4,53.3,48.4,53.3z M49,36.9L49,38.8l-0.5,0l0.1-1.9L49,36.9z M49.8,24.8l0.1-3.7l-0.3,0l-0.1,3.7l-0.9,0l0.1-2.9
		l-0.3,0l-0.1,2.9l-0.4,0l0.2-5.1l-0.3,0l-0.2,7.2l0.2,0L47.6,34l-0.1,0l-0.2,7.2l0.2,0l-0.3,9.6l0.2,0l-0.1,2.4l-0.3,0l-0.2,6.2
		l1.9,0.1l0.2-5.9l0.1,0l0.2-7.2h0l0.2-7.7l-0.3,0l0.1-1.9l0.2,0L49.8,24.8C49.9,24.8,49.8,24.8,49.8,24.8z M47.7,36.8l0.5,0
		l-0.1,1.9l-0.5,0L47.7,36.8z"/>
	<path id="path157" class="st0" d="M51.5,51.2l-0.1,2.4l-0.5,0l0.1-2.4L51.5,51.2z M51.7,53.6l0.1-2.4l0.4,0l-0.1,2.4L51.7,53.6z
		 M52.3,37.2l-0.1,1.9l-0.5,0l0.1-1.9C51.8,37.2,52.3,37.2,52.3,37.2z M53.1,25.1l0.1-3.7l-0.3,0L52.8,25l-0.9,0l0.1-2.9l-0.3,0
		L51.6,25l-0.4,0l0.2-5.1l-0.3,0l-0.2,7.2l0.3,0l-0.2,7.2l-0.1,0l-0.2,7.2l0.2,0l-0.3,9.6l0.2,0l-0.1,2.4l-0.3,0l-0.2,6.2l1.9,0.1
		l0.2-5.9l0.1,0l0.2-7.2h0l0.2-7.7l-0.3,0l0.1-1.9l0.2,0L53.1,25.1L53.1,25.1L53.1,25.1z M51,37.1l0.5,0L51.5,39l-0.5,0L51,37.1"/>
	<path id="path159" class="st1" d="M51.5,51.2l-0.1,2.4l-0.5,0l0.1-2.4L51.5,51.2z M51.7,53.6l0.1-2.4l0.4,0l-0.1,2.4L51.7,53.6z
		 M52.3,37.2l-0.1,1.9l-0.5,0l0.1-1.9C51.8,37.2,52.3,37.2,52.3,37.2z M53.1,25.1l0.1-3.7l-0.3,0L52.8,25l-0.9,0l0.1-2.9l-0.3,0
		L51.6,25l-0.4,0l0.2-5.1l-0.3,0l-0.2,7.2l0.3,0l-0.2,7.2l-0.1,0l-0.2,7.2l0.2,0l-0.3,9.6l0.2,0l-0.1,2.4l-0.3,0l-0.2,6.2l1.9,0.1
		l0.2-5.9l0.1,0l0.2-7.2h0l0.2-7.7l-0.3,0l0.1-1.9l0.2,0L53.1,25.1L53.1,25.1L53.1,25.1z M51,37.1l0.5,0L51.5,39l-0.5,0L51,37.1z"/>
	<path id="path161" class="st0" d="M55,57.4L55,59.9l-0.5,0l0.1-2.4L55,57.4z M55.2,59.9l0.1-2.4l0.4,0l-0.1,2.4
		C55.6,59.9,55.2,59.9,55.2,59.9z M55.9,43.4l-0.1,1.9l-0.5,0l0.1-1.9L55.9,43.4z M56.7,31.3l0.1-3.7l-0.3,0l-0.1,3.7l-0.9,0
		l0.1-2.9l-0.3,0l-0.1,2.9l-0.4,0l0.2-5.1l-0.3,0l-0.2,7.2l0.2,0l-0.2,7.2l-0.1,0l-0.2,7.2l0.2,0L54,57.4l0.2,0l-0.1,2.4l-0.3,0
		l-0.2,6.2l1.9,0.1l0.2-5.9l0.1,0l0.2-7.2h0l0.2-7.7l-0.3,0l0.1-1.9l0.2,0L56.7,31.3L56.7,31.3L56.7,31.3z M54.5,43.4l0.5,0L55,45.3
		l-0.5,0L54.5,43.4"/>
	<path id="path163" class="st1" d="M55,57.4L55,59.9l-0.5,0l0.1-2.4L55,57.4z M55.2,59.9l0.1-2.4l0.4,0l-0.1,2.4
		C55.6,59.9,55.2,59.9,55.2,59.9z M55.9,43.4l-0.1,1.9l-0.5,0l0.1-1.9L55.9,43.4z M56.7,31.3l0.1-3.7l-0.3,0l-0.1,3.7l-0.9,0
		l0.1-2.9l-0.3,0l-0.1,2.9l-0.4,0l0.2-5.1l-0.3,0l-0.2,7.2l0.2,0l-0.2,7.2l-0.1,0l-0.2,7.2l0.2,0L54,57.4l0.2,0l-0.1,2.4l-0.3,0
		l-0.2,6.2l1.9,0.1l0.2-5.9l0.1,0l0.2-7.2h0l0.2-7.7l-0.3,0l0.1-1.9l0.2,0L56.7,31.3L56.7,31.3L56.7,31.3z M54.5,43.4l0.5,0L55,45.3
		l-0.5,0L54.5,43.4z"/>
	<path id="path165" class="st0" d="M59.3,53.9l-0.1,2.4l-0.5,0l0.1-2.4L59.3,53.9z M59.5,56.3l0.1-2.4l0.4,0l-0.1,2.4L59.5,56.3z
		 M60.1,39.9l-0.1,1.9l-0.5,0l0.1-1.9L60.1,39.9L60.1,39.9z M60.9,27.8l0.1-3.7l-0.3,0l-0.1,3.7l-0.9,0l0.1-2.9l-0.3,0l-0.1,2.9
		l-0.4,0l0.2-5.1l-0.3,0l-0.2,7.2l0.3,0L58.7,37l-0.1,0l-0.2,7.2l0.2,0l-0.3,9.6l0.2,0l-0.1,2.4l-0.3,0l-0.2,6.2l1.9,0.1l0.2-5.9
		l0.1,0l0.2-7.2h0l0.2-7.7l-0.3,0l0.1-1.9l0.2,0L60.9,27.8L60.9,27.8L60.9,27.8z M58.8,39.8l0.5,0l-0.1,1.9l-0.5,0L58.8,39.8"/>
	<path id="path167" class="st1" d="M59.3,53.9l-0.1,2.4l-0.5,0l0.1-2.4L59.3,53.9z M59.5,56.3l0.1-2.4l0.4,0l-0.1,2.4L59.5,56.3z
		 M60.1,39.9l-0.1,1.9l-0.5,0l0.1-1.9L60.1,39.9L60.1,39.9z M60.9,27.8l0.1-3.7l-0.3,0l-0.1,3.7l-0.9,0l0.1-2.9l-0.3,0l-0.1,2.9
		l-0.4,0l0.2-5.1l-0.3,0l-0.2,7.2l0.3,0L58.7,37l-0.1,0l-0.2,7.2l0.2,0l-0.3,9.6l0.2,0l-0.1,2.4l-0.3,0l-0.2,6.2l1.9,0.1l0.2-5.9
		l0.1,0l0.2-7.2h0l0.2-7.7l-0.3,0l0.1-1.9l0.2,0L60.9,27.8L60.9,27.8L60.9,27.8z M58.8,39.8l0.5,0l-0.1,1.9l-0.5,0
		C58.7,41.7,58.8,39.8,58.8,39.8z"/>
	<path id="path169" class="st0" d="M66.2,53.2l-0.1,2.4l-0.5,0l0.1-2.4L66.2,53.2z M66.4,55.6l0.1-2.4l0.4,0l-0.1,2.4L66.4,55.6z
		 M67,39.2L67,41.1l-0.5,0l0.1-1.9C66.5,39.2,67,39.2,67,39.2z M67.8,27.1l0.1-3.7l-0.3,0l-0.1,3.7l-0.9,0l0.1-2.9l-0.3,0L66.3,27
		l-0.4,0l0.2-5.1l-0.3,0l-0.2,7.2l0.3,0l-0.2,7.2l-0.1,0l-0.2,7.2l0.2,0l-0.3,9.6l0.2,0l-0.1,2.4l-0.3,0l-0.2,6.2l1.9,0.1l0.2-5.9
		l0.1,0l0.2-7.2h0l0.2-7.7l-0.3,0l0.1-1.9l0.2,0L67.8,27.1L67.8,27.1L67.8,27.1z M65.7,39.1l0.5,0L66.2,41l-0.5,0L65.7,39.1"/>
	<path id="path171" class="st1" d="M66.2,53.2l-0.1,2.4l-0.5,0l0.1-2.4L66.2,53.2z M66.4,55.6l0.1-2.4l0.4,0l-0.1,2.4L66.4,55.6z
		 M67,39.2L67,41.1l-0.5,0l0.1-1.9C66.5,39.2,67,39.2,67,39.2z M67.8,27.1l0.1-3.7l-0.3,0l-0.1,3.7l-0.9,0l0.1-2.9l-0.3,0L66.3,27
		l-0.4,0l0.2-5.1l-0.3,0l-0.2,7.2l0.3,0l-0.2,7.2l-0.1,0l-0.2,7.2l0.2,0l-0.3,9.6l0.2,0l-0.1,2.4l-0.3,0l-0.2,6.2l1.9,0.1l0.2-5.9
		l0.1,0l0.2-7.2h0l0.2-7.7l-0.3,0l0.1-1.9l0.2,0L67.8,27.1L67.8,27.1L67.8,27.1z M65.7,39.1l0.5,0L66.2,41l-0.5,0
		C65.6,41,65.7,39.1,65.7,39.1z"/>
	<path id="path173" class="st0" d="M69.2,45.3l-0.1,2.4l-0.5,0l0.1-2.4L69.2,45.3z M69.4,47.7l0.1-2.4l0.4,0l-0.1,2.4L69.4,47.7
		L69.4,47.7z M70.1,31.3L70,33.2l-0.5,0l0.1-1.9C69.5,31.3,70.1,31.3,70.1,31.3z M70.8,19.2l0.1-3.7l-0.3,0l-0.1,3.7l-0.9,0l0.1-2.9
		l-0.3,0l-0.1,2.9l-0.4,0l0.2-5.1l-0.3,0l-0.2,7.2l0.3,0l-0.2,7.2l-0.1,0l-0.2,7.2l0.2,0l-0.3,9.6l0.2,0l-0.1,2.4l-0.3,0l-0.2,6.2
		l1.9,0.1l0.2-5.9l0.1,0l0.2-7.2h0l0.2-7.7l-0.3,0l0.1-1.9l0.2,0L70.8,19.2L70.8,19.2L70.8,19.2z M68.7,31.2l0.5,0l-0.1,1.9l-0.5,0
		L68.7,31.2"/>
	<path id="path175" class="st1" d="M69.2,45.3l-0.1,2.4l-0.5,0l0.1-2.4L69.2,45.3z M69.4,47.7l0.1-2.4l0.4,0l-0.1,2.4L69.4,47.7
		L69.4,47.7z M70.1,31.3L70,33.2l-0.5,0l0.1-1.9C69.5,31.3,70.1,31.3,70.1,31.3z M70.8,19.2l0.1-3.7l-0.3,0l-0.1,3.7l-0.9,0l0.1-2.9
		l-0.3,0l-0.1,2.9l-0.4,0l0.2-5.1l-0.3,0l-0.2,7.2l0.3,0l-0.2,7.2l-0.1,0l-0.2,7.2l0.2,0l-0.3,9.6l0.2,0l-0.1,2.4l-0.3,0l-0.2,6.2
		l1.9,0.1l0.2-5.9l0.1,0l0.2-7.2h0l0.2-7.7l-0.3,0l0.1-1.9l0.2,0L70.8,19.2L70.8,19.2L70.8,19.2z M68.7,31.2l0.5,0l-0.1,1.9l-0.5,0
		L68.7,31.2z"/>
	<path id="path177" class="st0" d="M14.6,71.4l-1.4,0l-1.7,85.2l1.4,0L14.6,71.4"/>
	<path id="path179" class="st1" d="M14.6,71.4l-1.4,0l-1.7,85.2l1.4,0L14.6,71.4z"/>
	<path id="path181" class="st0" d="M18.6,67.6l-1.4,0l-1.7,85.2l1.4,0L18.6,67.6"/>
	<path id="path183" class="st1" d="M18.6,67.6l-1.4,0l-1.7,85.2l1.4,0L18.6,67.6z"/>
	<path id="path185" class="st0" d="M24.2,71.6l-1.4,0l-1.7,85.2l1.4,0L24.2,71.6"/>
	<path id="path187" class="st1" d="M24.2,71.6l-1.4,0l-1.7,85.2l1.4,0L24.2,71.6z"/>
	<path id="path189" class="st0" d="M31.5,63l-1.6,0l-1.8,92.3l1.6,0L31.5,63"/>
	<path id="path191" class="st1" d="M31.5,63l-1.6,0l-1.8,92.3l1.6,0L31.5,63z"/>
	<path id="path193" class="st0" d="M35.4,65.8l-1.4,0l-1,90.5l1.4,0L35.4,65.8"/>
	<path id="path195" class="st1" d="M35.4,65.8l-1.4,0l-1,90.5l1.4,0L35.4,65.8z"/>
	<path id="path197" class="st0" d="M41.8,66.5l-1.4,0l-1,90.5l1.4,0L41.8,66.5"/>
	<path id="path199" class="st1" d="M41.8,66.5l-1.4,0l-1,90.5l1.4,0L41.8,66.5z"/>
	<path id="path201" class="st0" d="M48.8,58.6l-1.5-0.1l-0.2,97.4l1.5,0.1L48.8,58.6"/>
	<path id="path203" class="st1" d="M48.8,58.6l-1.5-0.1l-0.2,97.4l1.5,0.1L48.8,58.6z"/>
	<path id="path205" class="st0" d="M52.2,58.3l-1.5-0.1l-0.1,98.4l1.4,0.1L52.2,58.3"/>
	<path id="path207" class="st1" d="M52.2,58.3l-1.5-0.1l-0.1,98.4l1.4,0.1L52.2,58.3z"/>
	<path id="path209" class="st0" d="M58.1,65.6l-1.4-0.3L45.1,163l1.4,0.3L58.1,65.6"/>
	<path id="path211" class="st1" d="M58.1,65.6l-1.4-0.3L45.1,163l1.4,0.3L58.1,65.6z"/>
	<path id="path213" class="st0" d="M73,55.8l-1.4-0.3L59.9,162.7l1.4,0.3L73,55.8"/>
	<path id="path215" class="st1" d="M73,55.8l-1.4-0.3L59.9,162.7l1.4,0.3L73,55.8z"/>
	<path id="path217" class="st0" d="M14.8,55.2L87.1,41L121.3,55l-0.8,2.3l-70.7,9.3l-35-8.2L14.8,55.2"/>
	<path id="path219" class="st1" d="M14.8,55.2L87.1,41L121.3,55l-0.8,2.3l-70.7,9.3l-35-8.2L14.8,55.2z"/>
	<path id="path221" class="st0" d="M14.1,66.9l72.3-14.2L122,66.5l-0.7,3.2l-72.1,8.5l-35-8.2L14.1,66.9"/>
	<path id="path223" class="st1" d="M14.1,66.9l72.3-14.2L122,66.5l-0.7,3.2l-72.1,8.5l-35-8.2L14.1,66.9z"/>
	<path id="path225" class="st0" d="M10.9,79l72.3-14.2l38.2,15.1l0.5,3l-76,7.5l-35-8.2L10.9,79"/>
	<path id="path227" class="st1" d="M10.9,79l72.3-14.2l38.2,15.1l0.5,3l-76,7.5l-35-8.2L10.9,79z"/>
	<path id="path229" class="st0" d="M9.7,91.1L82,76.9L116.2,91l-0.8,2.3l-70.7,9.3l-35-8.2L9.7,91.1"/>
	<path id="path231" class="st1" d="M9.7,91.1L82,76.9L116.2,91l-0.8,2.3l-70.7,9.3l-35-8.2L9.7,91.1z"/>
	<path id="path233" class="st0" d="M8.8,105l72.3-14.2l34.2,14.1l-0.8,2.3l-70.7,9.3l-35-8.2L8.8,105"/>
	<path id="path235" class="st1" d="M8.8,105l72.3-14.2l34.2,14.1l-0.8,2.3l-70.7,9.3l-35-8.2L8.8,105z"/>
	<path id="path237" class="st0" d="M6.5,118.4l72.3-14.2l34.2,14.1l-0.8,2.3l-70.7,9.3l-35-8.2L6.5,118.4"/>
	<path id="path239" class="st1" d="M6.5,118.4l72.3-14.2l34.2,14.1l-0.8,2.3l-70.7,9.3l-35-8.2L6.5,118.4z"/>
	<path id="path241" class="st0" d="M4.2,130.3l72.3-14.2l34.2,14.1l-0.8,2.3l-70.7,9.3l-35-8.2L4.2,130.3"/>
	<path id="path243" class="st1" d="M4.2,130.3l72.3-14.2l34.2,14.1l-0.8,2.3l-70.7,9.3l-35-8.2L4.2,130.3z"/>
	<path id="path245" class="st0" d="M3.1,161.3h105.5v-29.5H3.1V161.3"/>
	<path id="path247" class="st1" d="M3.1,161.3h105.5v-29.5H3.1V161.3z"/>
	<path id="path249" class="st0" d="M101.8,87.9h2.2v72.4h-2.2V87.9z M206.9,87.9h2.2v9.9l4.8,1.8V89.1h2.2v11.4l7.8,2.9v-8.2h2.2v9
		l4,1.5v-7.9h2.2v8.7l5.1,1.9v-7.7h2.2v8.5l3.9,1.4v-7.7h2.2v8.5l1,0.4v52l-1,0.1v0.8h-2.2V164l-34.4,2.6v0.2h-2.2v0l-5.9,0.4v-0.3
		h-1.2l0,1.1l-90.7-6l0-0.1h-0.4V84.6h2.6V97l1.8-0.1v-4h2.6v3.9l2.4-0.1v-3.1h2.6v3l6.6-0.2v-4.6h2.6v4.5l2.4-0.1v-4.7h2.2v4.6
		l3-0.1v-4.5h2.2V96l2.6-0.1v-4.1h2.2v4l1.8-0.1v-5h2.2v4.9l1.2,0v-6.2h2.6v6.1l3.6-0.1v-5.8h2.6v5.7l9.7-0.3v-6.9h2.6v6.8l1.2,0
		v-6.1h2.2v6l23.7-0.8v-8h2.6v8.9l5.9,2.2L206.9,87.9"/>
	<path id="path251" class="st1" d="M101.8,87.9h2.2v72.4h-2.2V87.9z M206.9,87.9h2.2v9.9l4.8,1.8V89.1h2.2v11.4l7.8,2.9v-8.2h2.2v9
		l4,1.5v-7.9h2.2v8.7l5.1,1.9v-7.7h2.2v8.5l3.9,1.4v-7.7h2.2v8.5l1,0.4v52l-1,0.1v0.8h-2.2V164l-34.4,2.6v0.2h-2.2v0l-5.9,0.4v-0.3
		h-1.2l0,1.1l-90.7-6l0-0.1h-0.4V84.6h2.6V97l1.8-0.1v-4h2.6v3.9l2.4-0.1v-3.1h2.6v3l6.6-0.2v-4.6h2.6v4.5l2.4-0.1v-4.7h2.2v4.6
		l3-0.1v-4.5h2.2V96l2.6-0.1v-4.1h2.2v4l1.8-0.1v-5h2.2v4.9l1.2,0v-6.2h2.6v6.1l3.6-0.1v-5.8h2.6v5.7l9.7-0.3v-6.9h2.6v6.8l1.2,0
		v-6.1h2.2v6l23.7-0.8v-8h2.6v8.9l5.9,2.2L206.9,87.9L206.9,87.9z"/>
	<path id="path253" class="st0" d="M238.6,57.3l0.8-10.1l-8.5,1.5l-0.1,9.7L238.6,57.3z M237.6,69.2l0.3-3.5l-7.1-1.8l0,6.3
		L237.6,69.2L237.6,69.2z M236.6,81.2l0.4-5l-6.3-1.6l0,7.4L236.6,81.2z M235.7,92.3l0.3-4l-5.4-1.3l0,6L235.7,92.3z M350.6,21.3
		l0-5.3l-7.6,3.7l0,0.3L350.6,21.3z M341,32.4l0-0.9l-0.4,0.2l-8.3-0.8l0,0.1L341,32.4L341,32.4z M350.6,34l0-8l-7.6,4.4l0,2.4
		L350.6,34z M341,44.6l0-1.1l-1.3,0.7l-2.8-0.3L341,44.6L341,44.6z M350.5,46.2l0-8.2l-7.6,4.4l0,2.6L350.5,46.2L350.5,46.2z
		 M330.3,54.4l0-0.1l-0.9,0L330.3,54.4z M340.9,56.2l0-1.6l-8.7-0.3l0,0.4L340.9,56.2L340.9,56.2z M350.4,57.8l0-7.9l-7.6,3.8l0,2.8
		L350.4,57.8z M340.8,68.1l0-0.7l-7.7-0.6L340.8,68.1L340.8,68.1z M350.4,69.7l0-8.1l-7.6,4.9l0,2L350.4,69.7L350.4,69.7z
		 M330.1,78.5l0-0.3l-3-0.2L330.1,78.5z M340.8,80.3l0-1.5l-8.7-0.5l0,0.5L340.8,80.3z M350.3,81.9l0-7.8l-7.6,4.4l0,2.1L350.3,81.9
		L350.3,81.9z M315.5,89.7l-0.2,0l0,1.4L315.5,89.7z M330,91.4l0-0.3l-4.8-0.5L330,91.4z M340.7,93.2l0-1.1l-8.7-0.8l0,0.5
		L340.7,93.2z M350.2,94.8l0-8.8l-7.6,5.3l0,2.3L350.2,94.8z M342.5,116l0,4.7l7.6,1l0.1-10.8L342.5,116z M331.8,116.6l0,2.7
		l8.7,1.2l0-3.5L331.8,116.6z M317.4,116l0,1.3l12.5,1.7l0-2.5L317.4,116z M314.6,115.9l0,1.1l0.8,0.1l0-1.2L314.6,115.9z
		 M340.6,104.4l0-0.8l-7.8-0.4L340.6,104.4z M350.2,105.9l0-7.4l-7.6,4.2l0,2L350.2,105.9z M352.6,15l0,6.6l1.9,0.3l-0.3,2l-1.6,0.9
		l-0.1,9.5l1,0.2l-0.3,2l-0.7,0.4l-0.1,9.7l0.8,0.1l-0.3,2l-0.5,0.2l-0.1,9.2l0.6,0.1l-0.3,2l-0.3,0.2l-0.1,9.7l1.2,0.2l-0.1,2.2
		l-1,0.6l0,9.2l0.7,0.1l-0.3,2l-0.4,0.3l-0.1,10.5l0.8,0.1l-0.3,2l-0.5,0.3l0,8.7l1.6,0.3l0.1,2l-1.7,1.2L352,122l1.5,0.2l-1.4,46.6
		l-122-7.4l5.1-62.4l-4.6-1.1l-0.3,60.6l-1.9,0l0.3-61.1l-2-0.5l-0.4-3.1l2.4-0.3l0-6.8l-2.6-0.7l-0.4-3.1l3.1-0.4l0-8.2l-1.6-0.4
		l-0.4-3.1l2-0.3l0-7.1l-3.9-1l-0.4-3.1l4.3-0.6l0.1-9.7l-2.7,0.5l-0.9-5.8l27-4.7l-0.6-2.3l7.4-5.8l3.5,0.4l3.5-2.8l7,1.4l0.4-4.1
		l-4.6-6.1l4.8,0.5l0.6-10.4l9.1-6.4l24.9,5.4l8.9-5l0,0.3l36.2,7.2l0,3.1L352.6,15"/>
	<path id="path255" class="st1" d="M238.6,57.3l0.8-10.1l-8.5,1.5l-0.1,9.7L238.6,57.3z M237.6,69.2l0.3-3.5l-7.1-1.8l0,6.3
		L237.6,69.2L237.6,69.2z M236.6,81.2l0.4-5l-6.3-1.6l0,7.4L236.6,81.2z M235.7,92.3l0.3-4l-5.4-1.3l0,6L235.7,92.3z M350.6,21.3
		l0-5.3l-7.6,3.7l0,0.3L350.6,21.3z M341,32.4l0-0.9l-0.4,0.2l-8.3-0.8l0,0.1L341,32.4L341,32.4z M350.6,34l0-8l-7.6,4.4l0,2.4
		L350.6,34z M341,44.6l0-1.1l-1.3,0.7l-2.8-0.3L341,44.6L341,44.6z M350.5,46.2l0-8.2l-7.6,4.4l0,2.6L350.5,46.2L350.5,46.2z
		 M330.3,54.4l0-0.1l-0.9,0L330.3,54.4z M340.9,56.2l0-1.6l-8.7-0.3l0,0.4L340.9,56.2L340.9,56.2z M350.4,57.8l0-7.9l-7.6,3.8l0,2.8
		L350.4,57.8z M340.8,68.1l0-0.7l-7.7-0.6L340.8,68.1L340.8,68.1z M350.4,69.7l0-8.1l-7.6,4.9l0,2L350.4,69.7L350.4,69.7z
		 M330.1,78.5l0-0.3l-3-0.2L330.1,78.5z M340.8,80.3l0-1.5l-8.7-0.5l0,0.5L340.8,80.3z M350.3,81.9l0-7.8l-7.6,4.4l0,2.1L350.3,81.9
		L350.3,81.9z M315.5,89.7l-0.2,0l0,1.4L315.5,89.7z M330,91.4l0-0.3l-4.8-0.5L330,91.4z M340.7,93.2l0-1.1l-8.7-0.8l0,0.5
		L340.7,93.2z M350.2,94.8l0-8.8l-7.6,5.3l0,2.3L350.2,94.8z M342.5,116l0,4.7l7.6,1l0.1-10.8L342.5,116z M331.8,116.6l0,2.7
		l8.7,1.2l0-3.5L331.8,116.6z M317.4,116l0,1.3l12.5,1.7l0-2.5L317.4,116z M314.6,115.9l0,1.1l0.8,0.1l0-1.2L314.6,115.9z
		 M340.6,104.4l0-0.8l-7.8-0.4L340.6,104.4z M350.2,105.9l0-7.4l-7.6,4.2l0,2L350.2,105.9z M352.6,15l0,6.6l1.9,0.3l-0.3,2l-1.6,0.9
		l-0.1,9.5l1,0.2l-0.3,2l-0.7,0.4l-0.1,9.7l0.8,0.1l-0.3,2l-0.5,0.2l-0.1,9.2l0.6,0.1l-0.3,2l-0.3,0.2l-0.1,9.7l1.2,0.2l-0.1,2.2
		l-1,0.6l0,9.2l0.7,0.1l-0.3,2l-0.4,0.3l-0.1,10.5l0.8,0.1l-0.3,2l-0.5,0.3l0,8.7l1.6,0.3l0.1,2l-1.7,1.2L352,122l1.5,0.2l-1.4,46.6
		l-122-7.4l5.1-62.4l-4.6-1.1l-0.3,60.6l-1.9,0l0.3-61.1l-2-0.5l-0.4-3.1l2.4-0.3l0-6.8l-2.6-0.7l-0.4-3.1l3.1-0.4l0-8.2l-1.6-0.4
		l-0.4-3.1l2-0.3l0-7.1l-3.9-1l-0.4-3.1l4.3-0.6l0.1-9.7l-2.7,0.5l-0.9-5.8l27-4.7l-0.6-2.3l7.4-5.8l3.5,0.4l3.5-2.8l7,1.4l0.4-4.1
		l-4.6-6.1l4.8,0.5l0.6-10.4l9.1-6.4l24.9,5.4l8.9-5l0,0.3l36.2,7.2l0,3.1L352.6,15L352.6,15z"/>
	<path id="path257" class="st0" d="M3.7,155.6l351.8-2.6c0.4,0,0.7,0.2,0.7,0.4c0,12.4,1.1,29.3-0.1,29.3L3.7,182.6
		c-0.4,0-0.7-0.2-0.7-0.4V156C3.1,155.8,3.4,155.6,3.7,155.6"/>
	<path id="path259" class="st1" d="M3.7,155.6l351.8-2.6c0.4,0,0.7,0.2,0.7,0.4c0,12.4,1.1,29.3-0.1,29.3L3.7,182.6
		c-0.4,0-0.7-0.2-0.7-0.4V156C3.1,155.8,3.4,155.6,3.7,155.6L3.7,155.6z"/>
	<path id="path261" class="st0" d="M163.8,111.2h3.2v-26h-3.2V111.2"/>
	<path id="path263" class="st1" d="M163.8,111.2h3.2v-26h-3.2V111.2z"/>
	<path id="path265" class="st0" d="M11.8,148.1h0.3V32.8h-0.3V148.1"/>
	<path id="path267" class="st1" d="M11.8,148.1h0.3V32.8h-0.3V148.1z"/>
	<path id="path269" class="st0" d="M181.6,112.9h3.2v-26h-3.2V112.9"/>
	<path id="path271" class="st1" d="M181.6,112.9h3.2v-26h-3.2V112.9z"/>
</g>
</svg>
